<?xml version="1.0" encoding="UTF-8" standalone="no"?>
<!DOCTYPE svg PUBLIC "-//W3C//DTD SVG 1.1//EN" "http://www.w3.org/Graphics/SVG/1.1/DTD/svg11.dtd">
<!-- Created with Vectornator (http://vectornator.io/) -->
<svg height="100%" stroke-miterlimit="10" style="fill-rule:nonzero;clip-rule:evenodd;stroke-linecap:round;stroke-linejoin:round;" version="1.1" viewBox="-5.04607 67.0488 772.566 620" width="100%" xml:space="preserve" xmlns="http://www.w3.org/2000/svg" xmlns:vectornator="http://vectornator.io" xmlns:xlink="http://www.w3.org/1999/xlink">
<defs/>
<clipPath id="ArtboardFrame">
<rect height="620" width="772.566" x="-5.04607" y="67.0488"/>
</clipPath>
<g clip-path="url(#ArtboardFrame)" id="Layer" vectornator:layerName="Layer">
<g opacity="1" vectornator:layerName="OBJECTS">
<g opacity="1" vectornator:layerName="path">
<clipPath clip-rule="nonzero" id="ClipPath">
<path d="M38.3393 71.9021L725.661 71.9021L725.661 673.47L38.3393 673.47L38.3393 71.9021Z"/>
</clipPath>
<g clip-path="url(#ClipPath)">
<path d="M157.002 616.21L582.988 616.21C642.578 559.756 679.753 479.88 679.753 391.314C679.753 220.239 541.069 81.5549 369.995 81.5549C198.919 81.5549 60.2373 220.239 60.2373 391.314C60.2373 479.88 97.4119 559.756 157.002 616.21" fill="#ccdbff" fill-rule="nonzero" opacity="1" stroke="none" vectornator:layerName="path"/>
</g>
</g>
<g opacity="1" vectornator:layerName="path">
<clipPath clip-rule="nonzero" id="ClipPath_2">
<path d="M60.238 391.315C60.238 479.879 97.4126 559.754 157.001 616.211L582.987 616.211C642.579 559.754 679.753 479.879 679.753 391.315C679.753 220.239 541.068 81.5554 369.994 81.5554C198.92 81.5554 60.238 220.239 60.238 391.315"/>
</clipPath>
<g clip-path="url(#ClipPath_2)">
<path d="M651.915 214.35L523.498 273.618L654.608 218.84L651.915 214.35Z" fill="#ffffff" fill-rule="nonzero" opacity="1" stroke="none" vectornator:layerName="path"/>
<path d="M340.192 616.21C458.75 612.701 590.192 598.399 622.28 560.085C682.445 488.242 671.67 388.564 671.67 388.564C490.795 497.396 171.914 506.148 82.3385 506.376C98.49 546.715 122.88 582.858 153.429 612.741C167.896 614.152 189.32 615.406 215.197 616.21L340.192 616.21Z" fill="#789aeb" fill-rule="nonzero" opacity="1" stroke="none" vectornator:layerName="path"/>
<path d="M31.8371 317.172L616.443 129.936L30.4904 325.254L31.8371 317.172Z" fill="#ffffff" fill-rule="nonzero" opacity="1" stroke="none" vectornator:layerName="path"/>
<path d="M60.124 236.351L462.883 107.038L60.124 228.269L60.124 236.351Z" fill="#ffffff" fill-rule="nonzero" opacity="1" stroke="none" vectornator:layerName="path"/>
</g>
</g>
<g opacity="1" vectornator:layerName="path">
<clipPath clip-rule="nonzero" id="ClipPath_3">
<path d="M-5.04607 67.0488L767.52 67.0488L767.52 687.049L-5.04607 687.049L-5.04607 67.0488Z"/>
</clipPath>
<g clip-path="url(#ClipPath_3)">
<path d="M18.4572 629.681C18.4572 629.681 130.843 545.491 138.924 543.471C147.006 541.451 609.035 542.797 615.77 542.797C622.505 542.797 740.044 627.32 740.044 627.32L18.4572 629.681Z" fill="#ffffff" fill-rule="nonzero" opacity="1" stroke="none" vectornator:layerName="path"/>
<path d="M740.043 627.319L740.043 657.508C740.043 658.883 738.928 659.994 737.572 659.994L23.9701 659.994C22.613 659.994 21.4995 658.883 21.4995 657.508L21.4995 627.319L740.043 627.319Z" fill="#450532" fill-rule="nonzero" opacity="1" stroke="none" vectornator:layerName="path"/>
<path d="M738.986 625.919L633.068 552.904C626.7 548.516 619.149 546.166 611.415 546.166L380.771 546.166L150.126 546.166C142.392 546.166 134.843 548.516 128.475 552.904L22.5549 625.919C20.5888 627.273 21.5492 630.354 23.9364 630.354L380.771 630.354L737.606 630.354C739.994 630.354 740.952 627.273 738.986 625.919" fill="#ff8380" fill-rule="nonzero" opacity="1" stroke="none" vectornator:layerName="path"/>
<path d="M32.5108 630.354L160.028 628.783L292.485 630.129L160.252 630.578L32.5108 630.354Z" fill="#ffffff" fill-rule="nonzero" opacity="1" stroke="none" vectornator:layerName="path"/>
<path d="M637.265 562.583C632.466 559.214 621.186 549.814 614.115 549.533L380.771 549.533L147.424 549.533C140.357 549.814 129.075 559.214 124.277 562.583L49.6592 619.914L380.771 619.914L711.882 619.914L637.265 562.583Z" fill="#007fca" fill-rule="nonzero" opacity="1" stroke="none" vectornator:layerName="path"/>
<path d="M397.928 573.274C397.928 582.109 361.907 589.27 317.472 589.27C273.037 589.27 237.016 582.109 237.016 573.274C237.016 564.44 273.037 557.279 317.472 557.279C361.907 557.279 397.928 564.44 397.928 573.274" fill="#450532" fill-rule="nonzero" opacity="1" stroke="none" vectornator:layerName="path"/>
<path d="M553.653 597.352C553.653 610.907 504.501 621.895 443.867 621.895C383.235 621.895 334.083 610.907 334.083 597.352C334.083 583.796 383.235 572.809 443.867 572.809C504.501 572.809 553.653 583.796 553.653 597.352" fill="#450532" fill-rule="nonzero" opacity="1" stroke="none" vectornator:layerName="path"/>
</g>
</g>
<g opacity="1" vectornator:layerName="path">
<clipPath clip-rule="nonzero" id="ClipPath_4">
<path d="M60.238 391.315C60.238 479.879 97.4126 559.754 157.001 616.211L582.987 616.211C642.579 559.754 679.753 479.879 679.753 391.315C679.753 220.239 541.068 81.5554 369.994 81.5554C198.92 81.5554 60.238 220.239 60.238 391.315"/>
</clipPath>
<g clip-path="url(#ClipPath_4)">
<path d="M350.409 418.202L281.701 419.541C281.701 419.541 271.609 348.153 260.822 307.735C250.052 267.335 235.907 193.25 234.567 179.783C233.21 166.299 233.888 84.1409 233.888 84.1409C233.888 84.1409 280.465 68.7776 322.936 68.0468C329.374 67.9251 335.725 68.1512 341.797 68.8298C343.102 68.969 344.407 69.1256 345.694 69.317C345.694 69.317 347.712 175.729 346.373 214.129C345.016 252.511 341.658 322.559 343.676 342.759C345.694 362.977 350.409 418.202 350.409 418.202" fill="#fbaeaa" fill-rule="nonzero" opacity="1" stroke="none" vectornator:layerName="path"/>
<path d="M347.034 413.487L334.246 415.505C334.246 415.505 326.155 278.784 324.815 252.511C323.458 226.256 318.082 189.214 318.082 189.214C318.082 189.214 330.87 185.838 330.209 162.263C329.67 143.506 324.868 89.3956 322.936 68.047C329.374 67.9252 335.725 68.1514 341.797 68.83C342.162 102.828 342.997 186.482 342.997 199.305C342.997 215.469 338.282 322.559 339.622 335.365C340.979 348.153 347.034 413.487 347.034 413.487" fill="#fc7a80" fill-rule="nonzero" opacity="1" stroke="none" vectornator:layerName="path"/>
<path d="M315.384 417.525L312.691 272.047L330.201 415.505L315.384 417.525Z" fill="#fc7a80" fill-rule="nonzero" opacity="1" stroke="none" vectornator:layerName="path"/>
<path d="M258.136 177.082C258.136 179.873 255.874 182.133 253.085 182.133C250.294 182.133 248.032 179.873 248.032 177.082C248.032 174.291 250.294 172.031 253.085 172.031C255.874 172.031 258.136 174.291 258.136 177.082" fill="#ffffff" fill-rule="nonzero" opacity="1" stroke="none" vectornator:layerName="path"/>
<path d="M262.514 191.226C262.514 192.342 261.609 193.246 260.494 193.246C259.377 193.246 258.472 192.342 258.472 191.226C258.472 190.109 259.377 189.205 260.494 189.205C261.609 189.205 262.514 190.109 262.514 191.226" fill="#ffffff" fill-rule="nonzero" opacity="1" stroke="none" vectornator:layerName="path"/>
<path d="M271.157 320.315L245.565 213.453L263.973 301.457L271.157 320.315Z" fill="#ffffff" fill-rule="nonzero" opacity="1" stroke="none" vectornator:layerName="path"/>
<path d="M256.34 556.493C256.34 556.493 272.953 499.021 273.85 493.632C274.75 488.242 276.545 415.055 276.545 415.055C276.545 415.055 320.548 402.035 353.774 411.913C353.774 411.913 356.918 489.59 358.265 498.121C359.612 506.652 368.591 555.146 367.245 558.738C367.245 558.738 356.918 567.268 329.527 568.617C302.139 569.962 260.831 560.084 256.34 556.493" fill="#00b1f4" fill-rule="nonzero" opacity="1" stroke="none" vectornator:layerName="path"/>
<path d="M325.15 460.292L323.466 412.475C323.466 412.475 335.589 410.79 351.755 415.506C351.755 415.506 355.122 488.917 356.132 496.326C357.142 503.734 358.826 536.399 358.826 536.399L360.51 526.97L365.897 560.309L356.132 561.993C356.132 561.993 351.08 510.469 347.713 495.99C344.345 481.509 335.589 465.681 325.15 460.292" fill="#007fca" fill-rule="nonzero" opacity="1" stroke="none" vectornator:layerName="path"/>
<path d="M322.793 568.728C322.793 568.728 328.854 485.213 325.486 469.723C325.486 469.723 349.397 471.405 352.426 563.34L322.793 568.728Z" fill="#007fca" fill-rule="nonzero" opacity="1" stroke="none" vectornator:layerName="path"/>
<path d="M273.963 563.677C273.963 563.677 287.771 489.926 302.926 479.826C318.078 469.722 332.895 472.753 339.968 498.345C347.039 523.939 349.061 565.361 349.061 565.361C349.061 565.361 298.546 573.105 273.963 563.677" fill="#ffffff" fill-rule="nonzero" opacity="1" stroke="none" vectornator:layerName="path"/>
<path d="M327.17 479.151C327.17 479.151 330.539 527.979 318.415 564.013L347.038 562.666C347.038 562.666 344.345 485.213 327.17 479.151" fill="#ffdaa4" fill-rule="nonzero" opacity="1" stroke="none" vectornator:layerName="path"/>
<path d="M266.218 563.002C266.218 563.002 286.761 477.803 297.874 466.692C308.986 455.579 326.498 452.884 339.967 471.07C353.437 489.253 356.132 561.993 356.132 561.993L353.775 562.667C353.775 562.667 352.426 491.273 336.263 474.099C320.099 456.924 300.567 463.999 292.485 484.202C284.403 504.408 268.911 555.931 267.564 564.349L266.218 563.002Z" fill="#000d53" fill-rule="nonzero" opacity="1" stroke="none" vectornator:layerName="path"/>
<path d="M321.222 444.689C321.222 444.016 319.424 413.035 319.424 413.035L313.138 413.482L321.222 444.689Z" fill="#007fca" fill-rule="nonzero" opacity="1" stroke="none" vectornator:layerName="path"/>
<path d="M296.077 415.055L279.689 418.423L280.136 427.403L281.709 419.546L296.077 415.055Z" fill="#ffffff" fill-rule="nonzero" opacity="1" stroke="none" vectornator:layerName="path"/>
<path d="M332.054 527.139C332.054 530.02 329.717 532.359 326.834 532.359C323.951 532.359 321.614 530.02 321.614 527.139C321.614 524.256 323.951 521.919 326.834 521.919C329.717 521.919 332.054 524.256 332.054 527.139" fill="#ffffff" fill-rule="nonzero" opacity="1" stroke="none" vectornator:layerName="path"/>
<path d="M334.411 516.783C334.411 517.947 333.468 518.888 332.306 518.888C331.144 518.888 330.202 517.947 330.202 516.783C330.202 515.621 331.144 514.679 332.306 514.679C333.468 514.679 334.411 515.621 334.411 516.783" fill="#ffffff" fill-rule="nonzero" opacity="1" stroke="none" vectornator:layerName="path"/>
<path d="M276.769 485.998L282.158 467.815L276.769 479.714L276.769 485.998Z" fill="#ffffff" fill-rule="nonzero" opacity="1" stroke="none" vectornator:layerName="path"/>
<path d="M253.59 572.208L255.673 554.367C255.673 554.367 285.166 561.282 320.51 560.382C355.856 559.486 368.55 555.94 368.55 555.94L369.051 577.597C369.051 577.597 334.648 583.432 306.372 582.983C274.798 582.482 253.59 572.208 253.59 572.208" fill="#ffffff" fill-rule="nonzero" opacity="1" stroke="none" vectornator:layerName="path"/>
<path d="M369.052 577.596L368.612 558.588C359.312 559.966 342.934 561.981 324.848 562.332C324.848 562.332 323.648 581.005 312.173 580.622C302.666 580.305 276.359 578.271 253.691 571.331L253.59 572.208C253.59 572.208 274.798 582.483 306.372 582.985C334.649 583.432 369.052 577.596 369.052 577.596" fill="#ffdaa4" fill-rule="nonzero" opacity="1" stroke="none" vectornator:layerName="path"/>
<path d="M510.706 100.983C510.706 100.983 491.169 166.298 486.453 198.626C481.738 230.97 479.042 248.474 479.042 248.474L392.847 214.128C392.847 214.128 396.203 185.159 396.203 156.207C396.203 127.238 396.203 97.6072 402.258 75.3887C402.258 75.3887 402.782 75.3017 403.772 75.1799C404.763 75.0581 406.242 74.8842 408.104 74.7276C421.207 73.5618 454.265 72.4135 485.182 85.6889C493.622 89.3079 501.902 94.0056 509.577 100.095C509.958 100.374 510.341 100.669 510.706 100.983" fill="#fbaeaa" fill-rule="nonzero" opacity="1" stroke="none" vectornator:layerName="path"/>
<path d="M408.105 74.7279C402.38 90.822 399.353 131.953 399.353 131.953C397.561 104.515 401.928 82.801 403.772 75.1803C404.764 75.0585 406.243 74.8845 408.105 74.7279" fill="#ffffff" fill-rule="nonzero" opacity="1" stroke="none" vectornator:layerName="path"/>
<path d="M509.576 100.096C506.27 110.361 496.614 140.862 492.177 160.244C486.801 183.82 479.719 230.623 479.719 230.623L434.604 182.811L443.354 159.914C443.354 159.914 471.211 150.414 485.181 85.6894C493.621 89.3084 501.903 94.0062 509.576 100.096" fill="#fc7a80" fill-rule="nonzero" opacity="1" stroke="none" vectornator:layerName="path"/>
<path d="M424.941 95.1385C424.941 96.9984 423.434 98.5069 421.573 98.5069C419.714 98.5069 418.206 96.9984 418.206 95.1385C418.206 93.2785 419.714 91.77 421.573 91.77C423.434 91.77 424.941 93.2785 424.941 95.1385" fill="#ffffff" fill-rule="nonzero" opacity="1" stroke="none" vectornator:layerName="path"/>
<path d="M427.636 105.69C427.636 106.558 426.933 107.261 426.065 107.261C425.197 107.261 424.492 106.558 424.492 105.69C424.492 104.822 425.197 104.119 426.065 104.119C426.933 104.119 427.636 104.822 427.636 105.69" fill="#ffffff" fill-rule="nonzero" opacity="1" stroke="none" vectornator:layerName="path"/>
<path d="M373.755 246.004L389.134 219.513L393.174 197.287C393.174 197.287 407.654 174.388 434.258 179.777C460.862 185.165 482.414 220.188 483.089 235.005C483.762 249.822 480.729 311.11 481.405 315.489C482.078 319.866 482.414 333.337 482.414 341.083C482.414 348.827 489.488 412.137 490.16 418.872L380.715 257.23L373.755 246.004Z" fill="#00b1f4" fill-rule="nonzero" opacity="1" stroke="none" vectornator:layerName="path"/>
<path d="M400.246 198.354C400.246 198.756 399.921 199.083 399.517 199.083C399.115 199.083 398.786 198.756 398.786 198.354C398.786 197.951 399.115 197.625 399.517 197.625C399.921 197.625 400.246 197.951 400.246 198.354" fill="#ffffff" fill-rule="nonzero" opacity="1" stroke="none" vectornator:layerName="path"/>
<path d="M379.231 236.571C385.568 227.368 396.766 211.318 396.766 211.318L390.817 216.706L394.857 197.736C394.857 197.736 406.196 184.041 421.685 181.797C421.685 181.797 407.766 181.124 393.175 197.287L389.133 219.513L379.231 236.571Z" fill="#ffffff" fill-rule="nonzero" opacity="1" stroke="none" vectornator:layerName="path"/>
<path d="M482.414 341.082C482.414 333.336 482.078 319.866 481.405 315.488C480.999 312.849 481.939 289.523 482.602 268.166C482.318 254.832 482.189 233.657 482.189 233.657C482.189 233.657 480.9 264.133 480.394 271.373C479.889 278.614 471.639 315.319 471.639 315.319C471.639 315.319 476.016 368.527 477.363 377.62C478.52 385.428 487.496 410.483 490.007 417.404C488.789 405.874 482.414 348.438 482.414 341.082" fill="#007fca" fill-rule="nonzero" opacity="1" stroke="none" vectornator:layerName="path"/>
<path d="M428.028 209.074L432.912 181.46C432.912 181.46 455.138 185.164 467.935 204.696C480.73 224.227 482.19 233.657 482.19 233.657C482.19 233.657 479.721 264.639 479.047 270.364C478.374 276.088 470.461 308.584 470.461 308.584C470.461 308.584 460.693 270.699 458.337 268.006C455.978 265.313 447.392 252.347 447.392 252.347C447.392 252.347 445.034 234.666 442.172 225.911C439.31 217.156 437.459 214.294 428.028 209.074" fill="#007fca" fill-rule="nonzero" opacity="1" stroke="none" vectornator:layerName="path"/>
<path d="M469.618 309.314C469.618 309.314 477.251 278.107 479.048 264.414C480.842 250.72 482.19 233.657 482.19 233.657C482.19 233.657 480.169 261.046 479.946 266.434C479.722 271.823 470.517 314.029 470.517 314.029L469.618 309.314Z" fill="#000d53" fill-rule="nonzero" opacity="1" stroke="none" vectornator:layerName="path"/>
<path d="M387.226 239.718C387.226 239.718 398.674 225.126 400.694 219.737C402.716 214.349 407.205 207.389 424.044 208.289C440.883 209.187 446.494 230.29 448.963 254.086L446.045 252.74C446.045 252.74 445.147 221.533 434.819 214.126C424.493 206.716 413.718 208.962 408.554 212.329C403.39 215.697 402.492 217.717 401.818 221.533C401.145 225.35 391.939 239.269 391.939 239.269L387.226 239.718Z" fill="#000d53" fill-rule="nonzero" opacity="1" stroke="none" vectornator:layerName="path"/>
<path d="M426.737 218.728L427.412 211.095C427.412 211.095 437.176 213.228 441.107 226.025C445.036 238.82 445.26 249.484 445.26 249.484L424.828 241.515L426.737 218.728Z" fill="#007fca" fill-rule="nonzero" opacity="1" stroke="none" vectornator:layerName="path"/>
<path d="M395.533 239.718C395.533 239.718 402.773 229.11 404.286 224.059C405.802 219.008 409.676 211.094 420.956 212.273C432.239 213.451 436.111 216.313 438.468 227.259C440.824 238.203 440.657 248.474 440.657 248.474L395.533 239.718Z" fill="#ffffff" fill-rule="nonzero" opacity="1" stroke="none" vectornator:layerName="path"/>
<path d="M417.869 240.616C417.869 240.616 425.84 226.808 426.964 213.9C426.964 213.9 434.035 215.136 436.504 222.882C438.973 230.626 439.535 240.056 439.872 246.678L417.869 240.616Z" fill="#ffdaa4" fill-rule="nonzero" opacity="1" stroke="none" vectornator:layerName="path"/>
<path d="M453.899 537.193C415.291 543.474 394.637 536.74 381.607 496.322C368.592 455.922 383.849 419.993 383.414 398.888C382.962 377.783 374.421 353.094 369.497 338.722C369.497 338.722 368.383 335.678 366.887 330.684C366.868 330.632 366.852 330.562 366.835 330.51C364.921 324.09 362.398 314.555 360.797 304.185L360.797 304.168C359.945 298.67 359.353 292.946 359.266 287.308C359.092 279.374 359.908 271.649 362.311 265.09C372.176 238.139 389.697 234.102 413.497 237.252C437.283 240.383 463.782 249.379 470.515 301.001C477.249 352.642 479.946 378.688 492.525 421.333C494.004 426.361 495.135 431.72 495.916 437.288C501.764 478.923 487.967 531.644 453.899 537.193" fill="#ffffff" fill-rule="nonzero" opacity="1" stroke="none" vectornator:layerName="path"/>
<path d="M453.899 537.193C415.291 543.474 394.637 536.74 381.607 496.322C368.592 455.922 383.849 419.993 383.414 398.888C382.962 377.783 374.421 353.094 369.497 338.722C369.497 338.722 368.383 335.678 366.887 330.684C366.868 330.632 366.852 330.562 366.835 330.51C364.921 324.09 362.398 314.555 360.797 304.185L360.797 304.168C360.38 293.05 360.989 282.28 363.877 275.755C370.141 261.662 383.068 252.423 398.901 250.231C403.512 249.605 408.366 249.553 413.377 250.162C435.611 252.858 455.813 268.013 460.528 311.11C465.243 354.208 472.654 379.471 481.738 401.028C486.782 412.966 492.021 424.691 495.916 437.288C501.764 478.923 487.967 531.644 453.899 537.193" fill="#a65b48" fill-rule="nonzero" opacity="1" stroke="none" vectornator:layerName="path"/>
<path d="M423.652 323.907L423.82 322.982L448.739 322.475L448.654 321.381L423.566 322.308L423.652 323.907Z" fill="#e78d77" fill-rule="nonzero" opacity="1" stroke="none" vectornator:layerName="path"/>
<path d="M424.829 298.567L447.309 298.567L447.055 297.22L424.829 298.567Z" fill="#e78d77" fill-rule="nonzero" opacity="1" stroke="none" vectornator:layerName="path"/>
<path d="M374.148 303.45L390.986 301.597L374.231 302.018L374.148 303.45Z" fill="#e78d77" fill-rule="nonzero" opacity="1" stroke="none" vectornator:layerName="path"/>
<path d="M379.115 331.569L399.237 326.18L378.779 330.558L379.115 331.569Z" fill="#e78d77" fill-rule="nonzero" opacity="1" stroke="none" vectornator:layerName="path"/>
<path d="M386.607 355.647L408.328 350.848L408.833 352.868L408.497 349.754L386.272 354.636L386.607 355.647Z" fill="#e78d77" fill-rule="nonzero" opacity="1" stroke="none" vectornator:layerName="path"/>
<path d="M424.997 353.71L424.661 349.416L450.843 348.321L451.096 349.922L425.335 350.427L424.997 353.71Z" fill="#e78d77" fill-rule="nonzero" opacity="1" stroke="none" vectornator:layerName="path"/>
<path d="M454.463 464.11L453.454 461.304L478.933 452.996L479.159 454.793L454.239 461.864L454.463 464.11Z" fill="#e78d77" fill-rule="nonzero" opacity="1" stroke="none" vectornator:layerName="path"/>
<path d="M396.206 493.182L414.951 486.785L395.532 491.498L396.206 493.182Z" fill="#e78d77" fill-rule="nonzero" opacity="1" stroke="none" vectornator:layerName="path"/>
<path d="M390.255 459.956L415.065 461.416L389.92 458.047L390.255 459.956Z" fill="#e78d77" fill-rule="nonzero" opacity="1" stroke="none" vectornator:layerName="path"/>
<path d="M395.083 427.178L420.676 433.577L395.418 425.494L395.083 427.178Z" fill="#e78d77" fill-rule="nonzero" opacity="1" stroke="none" vectornator:layerName="path"/>
<path d="M446.719 432.005L470.797 421.735L469.449 419.546L444.53 430.49L448.065 437.9L446.719 432.005Z" fill="#e78d77" fill-rule="nonzero" opacity="1" stroke="none" vectornator:layerName="path"/>
<path d="M362.763 284.177C359.579 296.008 363.772 317.705 366.834 330.51C364.92 324.09 362.397 314.555 360.797 304.186L360.797 304.168C359.944 298.67 359.353 292.946 359.266 287.309C360.014 281.393 362.171 274.259 367.687 265.769C375.307 254.042 390.131 250.98 398.9 250.231C403.059 249.883 405.86 250.04 405.86 250.04C380.492 250.719 367.46 266.656 362.763 284.177" fill="#ffdaa4" fill-rule="nonzero" opacity="1" stroke="none" vectornator:layerName="path"/>
<path d="M387.002 266.547C387.002 267.848 385.945 268.904 384.644 268.904C383.341 268.904 382.286 267.848 382.286 266.547C382.286 265.245 383.341 264.189 384.644 264.189C385.945 264.189 387.002 265.245 387.002 266.547" fill="#ffffff" fill-rule="nonzero" opacity="1" stroke="none" vectornator:layerName="path"/>
<path d="M393.062 258.801C393.062 259.546 392.459 260.148 391.716 260.148C390.971 260.148 390.367 259.546 390.367 258.801C390.367 258.057 390.971 257.455 391.716 257.455C392.459 257.455 393.062 258.057 393.062 258.801" fill="#ffffff" fill-rule="nonzero" opacity="1" stroke="none" vectornator:layerName="path"/>
<path d="M478.822 468.487C477.026 494.305 472.089 508.225 457.494 515.184C442.902 522.144 424.941 523.715 410.35 513.613C395.757 503.509 390.367 470.507 391.042 459.283C391.716 448.057 397.553 422.465 397.327 405.177C397.102 387.891 391.042 367.462 389.247 362.073C389.247 362.073 375.328 320.989 374.652 310.438C373.979 299.886 376.674 278.558 395.307 271.823C413.941 265.088 434.147 272.945 439.084 281.027C444.024 289.109 447.168 291.129 447.841 309.539C448.515 327.948 450.535 355.114 454.575 375.095C458.618 395.076 465.802 410.79 467.598 415.055C469.393 419.321 480.618 442.669 478.822 468.487M480.393 462.314C480.057 438.404 471.974 423.585 463.219 401.698C454.463 379.808 449.75 338.724 449.075 310.101C448.403 281.476 434.931 268.681 410.35 268.681C385.767 268.681 374.317 282.149 372.632 303.028C370.948 323.907 385.767 355.225 390.482 375.43C395.195 395.636 393.939 414.16 393.847 415.166C393.511 418.872 392.838 429.312 390.818 440.76C388.798 452.212 386.103 474.1 395.195 495.652C404.286 517.204 414.726 528.317 444.699 522.929C474.669 517.54 480.731 486.222 480.393 462.314" fill="#000d53" fill-rule="nonzero" opacity="1" stroke="none" vectornator:layerName="path"/>
<path d="M389.134 366.843L409.338 363.645L409.506 357.919L410.517 365.159L390.143 368.023L389.134 366.843Z" fill="#000d53" fill-rule="nonzero" opacity="1" stroke="none" vectornator:layerName="path"/>
<path d="M425.165 358.761L427.018 363.645L452.779 361.961L452.779 363.308L426.176 364.654L425.165 358.761Z" fill="#000d53" fill-rule="nonzero" opacity="1" stroke="none" vectornator:layerName="path"/>
<path d="M382.399 344.112C382.903 343.776 402.773 339.23 402.773 339.23L399.909 326.769L403.951 340.239L382.903 345.292L382.399 344.112Z" fill="#000d53" fill-rule="nonzero" opacity="1" stroke="none" vectornator:layerName="path"/>
<path d="M423.652 326.265C423.652 326.769 424.996 338.051 424.996 338.051L449.75 337.546L450.086 339.231L424.325 339.06L423.652 326.265Z" fill="#000d53" fill-rule="nonzero" opacity="1" stroke="none" vectornator:layerName="path"/>
<path d="M375.439 319.754C375.775 319.642 397.442 314.703 397.442 314.703L392.838 302.243L396.318 313.805L375.439 318.407L375.439 319.754Z" fill="#000d53" fill-rule="nonzero" opacity="1" stroke="none" vectornator:layerName="path"/>
<path d="M422.136 299.885L422.809 312.682L448.628 312.009L448.739 310.998L423.258 311.111L422.136 299.885Z" fill="#000d53" fill-rule="nonzero" opacity="1" stroke="none" vectornator:layerName="path"/>
<path d="M412.398 390.389L438.665 387.469L440.237 399.593L413.969 402.288L412.398 390.389Z" fill="#000d53" fill-rule="nonzero" opacity="1" stroke="none" vectornator:layerName="path"/>
<path d="M391.715 444.353L416.973 449.966L421.462 435.149L417.309 451.874L391.603 445.699L391.715 444.353Z" fill="#000d53" fill-rule="nonzero" opacity="1" stroke="none" vectornator:layerName="path"/>
<path d="M392.838 479.599L416.072 478.141C416.072 478.141 415.176 467.14 416.186 461.302C416.186 461.302 414.166 468.262 415.063 476.906L392.165 478.141L392.838 479.599Z" fill="#000d53" fill-rule="nonzero" opacity="1" stroke="none" vectornator:layerName="path"/>
<path d="M407.318 513.052C407.542 512.716 420.901 503.621 420.901 503.621C420.901 503.621 416.298 493.182 415.962 485.998C415.962 485.998 418.657 497.673 422.024 503.957L408.217 513.949L407.318 513.052Z" fill="#000d53" fill-rule="nonzero" opacity="1" stroke="none" vectornator:layerName="path"/>
<path d="M453.23 504.408L463.219 512.939L462.098 513.612L453.23 504.408Z" fill="#000d53" fill-rule="nonzero" opacity="1" stroke="none" vectornator:layerName="path"/>
<path d="M478.934 474.099L459.179 477.243L457.046 472.754L459.291 478.479L479.16 475.223L478.934 474.099Z" fill="#000d53" fill-rule="nonzero" opacity="1" stroke="none" vectornator:layerName="path"/>
<path d="M476.578 438.853C476.242 438.853 451.883 446.261 451.883 446.261L476.129 437.729L476.578 438.853Z" fill="#000d53" fill-rule="nonzero" opacity="1" stroke="none" vectornator:layerName="path"/>
<path d="M454.127 500.816C454.127 500.816 457.942 493.857 458.953 488.806L475.681 491.722L476.017 489.815L458.169 487.457C458.169 487.457 458.282 491.61 454.127 500.816" fill="#e78d77" fill-rule="nonzero" opacity="1" stroke="none" vectornator:layerName="path"/>
<path d="M426.963 230.289C426.963 231.963 424.877 233.32 422.304 233.32C419.732 233.32 417.646 231.963 417.646 230.289C417.646 228.615 419.732 227.258 422.304 227.258C424.877 227.258 426.963 228.615 426.963 230.289" fill="#ffffff" fill-rule="nonzero" opacity="1" stroke="none" vectornator:layerName="path"/>
<path d="M430.217 224.733C430.217 225.446 429.49 226.024 428.59 226.024C427.691 226.024 426.963 225.446 426.963 224.733C426.963 224.02 427.691 223.442 428.59 223.442C429.49 223.442 430.217 224.02 430.217 224.733" fill="#ffffff" fill-rule="nonzero" opacity="1" stroke="none" vectornator:layerName="path"/>
<path d="M425.504 204.022L428.197 188.645L426.177 188.757L430.668 184.603L425.504 204.022Z" fill="#007fca" fill-rule="nonzero" opacity="1" stroke="none" vectornator:layerName="path"/>
</g>
</g>
</g>
</g>
</svg>
