<?xml version="1.0" encoding="UTF-8" standalone="no"?>
<!DOCTYPE svg PUBLIC "-//W3C//DTD SVG 1.1//EN" "http://www.w3.org/Graphics/SVG/1.1/DTD/svg11.dtd">
<!-- Created with Vectornator (http://vectornator.io/) -->
<svg height="100%" stroke-miterlimit="10" style="fill-rule:nonzero;clip-rule:evenodd;stroke-linecap:round;stroke-linejoin:round;" version="1.1" viewBox="90 90 620 620" width="100%" xml:space="preserve" xmlns="http://www.w3.org/2000/svg" xmlns:vectornator="http://vectornator.io" xmlns:xlink="http://www.w3.org/1999/xlink">
<defs/>
<clipPath id="ArtboardFrame">
<rect height="620" width="620" x="90" y="90"/>
</clipPath>
<g clip-path="url(#ArtboardFrame)" id="Layer" vectornator:layerName="Layer">
<g opacity="1" vectornator:layerName="Background">
<path d="M90 400C90 228.792 228.792 90 400 90C571.208 90 710 228.792 710 400C710 571.208 571.208 710 400 710C228.792 710 90 571.208 90 400Z" fill="#789aeb" fill-rule="nonzero" opacity="1" stroke="none" vectornator:layerName="Oval 1"/>
<path d="M569.056 393.375L481.933 433.584L570.883 396.421L569.056 393.375Z" fill="#ffffff" fill-rule="nonzero" opacity="1" stroke="none" vectornator:layerName="path"/>
<path d="M148.373 460.033L544.99 333.006L147.46 465.516L148.373 460.033Z" fill="#ffffff" fill-rule="nonzero" opacity="1" stroke="none" vectornator:layerName="path 1"/>
<path d="M245.064 237.801L518.31 150.071L245.064 232.318L245.064 237.801Z" fill="#ffffff" fill-rule="nonzero" opacity="1" stroke="none" vectornator:layerName="path 2"/>
<g opacity="1" vectornator:layerName="path">
<clipPath clip-rule="nonzero" id="ClipPath">
<path d="M92.7303 400C92.7303 569.7 230.3 707.27 400 707.27C569.7 707.27 707.27 569.7 707.27 400C707.27 230.3 569.7 92.7292 400 92.7292C230.3 92.7292 92.7303 230.3 92.7303 400"/>
</clipPath>
<g clip-path="url(#ClipPath)">
<path d="M83.6168 629.3C66.8118 645.662 83.1566 669.939 103.145 695.045C123.134 720.151 143.071 723.402 155.412 711.357C167.752 699.312 269.648 597.946 285.896 580.697C302.144 563.447 327.87 533.281 327.87 533.281C327.87 533.281 359.566 523.356 393.497 493.013C427.428 462.671 456.585 434.531 461.159 427.161C465.732 419.79 454.944 414.429 448.252 412.935C441.559 411.442 411.06 438.297 411.06 438.297C411.06 438.297 425.65 420.193 430.997 414.578C436.344 408.964 462.756 382.816 468.017 375.365C473.28 367.913 469.869 361.033 461.975 358.505C454.081 355.977 451.122 357.89 438.039 368.612C424.955 379.335 398.206 401.955 390.86 406.312C383.515 410.668 375.285 413.525 375.285 413.525C375.285 413.525 416.794 365.31 423.139 357.57C429.485 349.828 448.843 333.671 439.125 320.898C429.408 308.125 422.399 312.28 411.743 322.902C401.087 333.523 352.044 386.128 352.044 386.128C352.044 386.128 364.401 362.224 369.373 355.903C374.344 349.584 397.182 318.711 399.066 309.831C400.948 300.95 393.908 292.855 385.312 295.735C376.715 298.616 366.238 313.103 361.04 318.89C355.84 324.676 338.109 344.27 338.109 344.27C338.109 344.27 337.402 328.424 330.436 319.427C323.471 310.429 317.689 316.569 313.946 325.307C310.203 334.045 304.657 348.155 302.873 351.067C301.09 353.979 274.05 401.984 270.474 411.542C266.898 421.102 261.206 458.449 261.206 458.449L83.6168 629.3Z" fill="#c27e54" fill-rule="nonzero" opacity="1" stroke="none" vectornator:layerName="path"/>
<path d="M353.68 383C350.005 387.731 347.524 391.005 347.277 391.539C346.178 393.905 340.339 396.565 336.756 396.434C333.172 396.305 343.238 378.347 353.968 361.848C364.07 346.317 393.953 316.352 393.305 296.259C397.679 298.527 400.302 303.999 399.065 309.83C397.182 318.712 374.343 349.583 369.373 355.904C365.514 360.811 357.205 376.31 353.68 383" fill="#ab6f49" fill-rule="nonzero" opacity="1" stroke="none" vectornator:layerName="path"/>
<path d="M107.718 700.374C122.259 694.084 153.95 677.558 199.687 638.32C264.088 583.067 314.143 532.278 318.686 511.755C318.686 511.755 337.147 514.957 377.789 488.566C418.429 462.176 446.596 439.306 457.925 417.086C461.507 419.619 463.69 423.08 461.159 427.162C456.585 434.531 427.428 462.671 393.497 493.014C359.566 523.356 327.87 533.281 327.87 533.281C327.87 533.281 302.144 563.446 285.896 580.696C269.648 597.946 167.752 699.313 155.412 711.358C144.014 722.483 126.132 720.515 107.718 700.374" fill="#ab6f49" fill-rule="nonzero" opacity="1" stroke="none" vectornator:layerName="path"/>
<path d="M375.286 413.524C370.908 417.473 365.697 412.175 368.689 405.318C371.682 398.461 426.306 342.04 431.983 330.563C434.475 325.522 434.731 320.152 434.232 315.713C435.805 316.968 437.422 318.659 439.125 320.899C448.843 333.671 429.485 349.828 423.139 357.57C416.794 365.311 375.286 413.524 375.286 413.524" fill="#ab6f49" fill-rule="nonzero" opacity="1" stroke="none" vectornator:layerName="path"/>
<path d="M330.436 319.427C337.402 328.425 338.108 344.269 338.108 344.269L312.504 375.966C312.504 375.966 303.047 393.439 300.054 400.298C297.062 407.156 297.097 392.211 301.86 381.956C306.622 371.7 319.894 352.773 325.546 341.763C331.196 330.759 325.794 321.914 322.573 315.149C324.961 314.637 327.598 315.76 330.436 319.427" fill="#ab6f49" fill-rule="nonzero" opacity="1" stroke="none" vectornator:layerName="path"/>
<path d="M405.693 428.064C417.629 415.578 456.475 378.187 461.591 372.123C465.196 367.852 466.304 364.567 466.884 361.08C471.012 364.427 471.997 369.731 468.019 375.365C462.756 382.817 436.343 408.965 430.997 414.578C427.889 417.841 421.665 425.317 416.992 431.011C408.777 438.032 397.5 447.703 395.192 449.849C391.479 453.303 393.757 440.551 405.693 428.064" fill="#ab6f49" fill-rule="nonzero" opacity="1" stroke="none" vectornator:layerName="path"/>
<path d="M264.9 444.197C264.9 444.197 264.665 443.1 264.279 441.31C266.204 430.12 268.771 416.575 270.718 411.348C274.273 401.806 301.188 353.9 302.965 350.994C304.741 348.088 310.255 334.003 313.978 325.282C316.183 320.115 319.109 315.888 322.573 315.149C322.573 315.149 312.527 337.165 312.038 341.533C311.549 345.9 292.785 380.231 283.371 397.669C273.958 415.108 264.9 444.197 264.9 444.197" fill="#ffffff" fill-rule="nonzero" opacity="1" stroke="none" vectornator:layerName="path"/>
<path d="M336.557 351.844C329.614 359.362 311.175 378.44 311.175 378.44C311.175 378.44 330.14 354.715 338.109 344.27C338.109 344.27 355.839 324.676 361.039 318.89C366.239 313.103 376.715 298.616 385.311 295.735C388.262 294.747 391.018 295.073 393.305 296.26C393.3 296.26 385.582 296.479 374.436 311.281C363.285 326.089 343.5 344.328 336.557 351.844" fill="#ffffff" fill-rule="nonzero" opacity="1" stroke="none" vectornator:layerName="path"/>
<path d="M434.233 315.713C434.233 315.713 430.39 310.452 409.442 331.604C388.495 352.756 350.264 389.668 350.264 389.668C350.264 389.668 390.214 344.923 399.412 334.617C408.609 324.311 424.801 308.672 434.233 315.713" fill="#ffffff" fill-rule="nonzero" opacity="1" stroke="none" vectornator:layerName="path"/>
<path d="M466.884 361.08C466.884 361.08 464.235 358.583 453.776 362.933C443.317 367.281 407.982 400.658 393.086 405.404C393.086 405.404 413.047 389.051 427.164 377.511C441.284 365.971 457.542 347.268 466.884 361.08" fill="#ffffff" fill-rule="nonzero" opacity="1" stroke="none" vectornator:layerName="path"/>
<path d="M457.924 417.086C457.924 417.086 452.959 414.797 444.611 418.459C436.264 422.122 406.267 442.523 406.267 442.523C406.267 442.523 433.657 420.219 440.624 415.169C447.591 410.12 452.791 413.993 457.924 417.086" fill="#ffffff" fill-rule="nonzero" opacity="1" stroke="none" vectornator:layerName="path"/>
<path d="M261.206 458.449C261.206 458.449 249.152 475.628 217.915 506.962C186.677 538.296 96.374 629.086 83.6167 629.3C83.6167 629.3 177.138 539.428 188.341 528.519C199.544 517.612 261.206 458.449 261.206 458.449" fill="#ffffff" fill-rule="nonzero" opacity="1" stroke="none" vectornator:layerName="path"/>
<path d="M440.227 319.761C439.487 318.832 438.643 317.947 437.699 317.119C431.642 311.819 423.904 311.123 417.984 315.348C409.344 321.513 376.316 357.183 357.383 377.909C366.724 363.747 379.518 344.482 385.373 336.28L387.123 333.839C396.76 320.416 405.864 307.735 398.289 298.22C395.76 295.044 392.657 293.452 389.069 293.486C382.702 293.546 375.037 299.01 367.489 308.87C364.349 312.97 358.162 319.79 351 327.687C335.533 344.741 316.283 365.964 308.624 380.201C308.215 380.962 308.501 381.907 309.261 382.319C310.022 382.729 310.971 382.443 311.381 381.682C318.856 367.784 338.774 345.823 353.317 329.789C360.528 321.839 366.754 314.974 369.971 310.772C376.823 301.824 383.793 296.663 389.097 296.613C391.711 296.589 393.916 297.751 395.841 300.169C401.944 307.833 393.51 319.58 384.582 332.015L382.828 334.464C373.05 348.156 344.067 392.478 343.776 392.925C343.328 393.609 343.477 394.521 344.131 395.02C344.779 395.518 345.701 395.434 346.246 394.827C346.863 394.144 408.029 326.294 419.802 317.893C425.499 313.828 431.719 316.043 435.64 319.473C439.452 322.816 442.416 328.593 439.886 333.375C434.58 343.408 373.392 413.315 372.775 414.021C372.355 414.5 372.269 415.186 372.556 415.756C372.838 416.329 373.449 416.661 374.083 416.609C383.217 415.835 406.173 396.875 426.428 380.147C437.836 370.726 448.61 361.826 452.825 359.791C458.205 357.193 462.918 360.183 465.42 363.521C467.924 366.94 469.089 372.241 465.727 375.801C458.263 383.709 395.963 449.085 395.334 449.744C394.758 450.35 394.784 451.312 395.338 451.907C395.918 452.51 396.868 452.55 397.499 451.998C397.865 451.677 434.331 419.736 443.396 415.408C448.522 412.959 455.586 415.678 458.967 419.757C460.074 421.118 461.709 423.761 459.896 426.238C454.845 433.134 417.875 472.554 385.686 497.184C354.096 521.359 327.573 531.72 327.308 531.822C327.005 531.939 326.744 532.147 326.565 532.419C307.493 561.301 155.853 708.748 154.322 710.235C153.703 710.838 153.701 711.848 154.292 712.445C154.892 713.066 155.882 713.081 156.503 712.478C162.729 706.429 308.57 564.616 328.901 534.553C332.625 533.041 357.955 522.344 387.586 499.67C420.003 474.863 457.311 435.061 462.42 428.086C464.63 425.072 464.226 421.144 461.376 417.761C457.262 412.797 448.701 409.408 442.048 412.585C437.68 414.672 427.721 422.458 418.121 430.363C437.189 410.347 463.329 382.899 468.004 377.947C471.934 373.783 471.911 367.089 467.944 361.672C464.494 357.035 458.118 353.761 451.465 356.975C446.909 359.174 436.497 367.775 424.438 377.734C409.388 390.164 389.667 406.451 378.904 411.757C392.541 396.115 437.904 343.813 442.651 334.84C445.035 330.334 444 324.501 440.227 319.761" fill="#502801" fill-rule="nonzero" opacity="1" stroke="none" vectornator:layerName="path"/>
<path d="M331.906 318.76C331.206 317.881 330.445 317.052 329.616 316.29C326.703 313.612 323.962 313.697 322.177 314.241C314.168 316.674 308.481 333.273 307.121 338.898C306.251 342.502 300.35 352.602 294.104 363.295C285.54 377.958 275.833 394.576 271.536 406.383C266.621 419.887 264.463 434.167 262.886 444.592C262.046 450.147 261.382 454.534 260.638 456.271C258.563 459.784 208.485 507.416 164.302 549.439C125.758 586.1 89.3506 620.728 82.4628 628.244C81.8798 628.88 81.9349 629.857 82.5594 630.454C83.1964 631.035 84.1857 630.993 84.77 630.356C91.5838 622.92 127.954 588.328 166.458 551.706C225.996 495.077 262.241 460.478 263.513 457.502C264.415 455.397 265.071 451.062 265.979 445.06C267.536 434.764 269.668 420.663 274.475 407.452C278.676 395.91 288.728 378.7 296.805 364.873C303.72 353.033 309.182 343.683 310.163 339.632C311.844 332.68 317.36 318.973 323.087 317.233C324.034 316.944 325.519 316.774 327.499 318.593C336.17 326.571 336.704 343.792 336.712 343.965C336.735 344.825 337.449 345.51 338.314 345.489C339.177 345.466 339.861 344.749 339.838 343.887C339.82 343.191 339.359 328.122 331.906 318.76" fill="#502801" fill-rule="nonzero" opacity="1" stroke="none" vectornator:layerName="path"/>
<path d="M528.731 181.133C517.716 192.149 603.919 283.76 619.156 268.524C619.156 268.524 608.342 279.336 591.386 296.293C574.429 313.25 484.294 225.572 502.479 207.387C520.664 189.2 528.731 181.133 528.731 181.133" fill="#ba2a42" fill-rule="nonzero" opacity="1" stroke="none" vectornator:layerName="path"/>
<path d="M503.585 208.492C500.056 212.019 501.394 219.659 507.349 230.004C512.956 239.742 522.311 251.372 533.691 262.752C558.652 287.712 583.508 301.959 590.279 295.186L613.709 271.758C609.448 271.48 603.821 269.091 596.875 264.598C587.616 258.612 576.114 248.909 564.487 237.283C550.835 223.631 528.479 198.277 526.382 185.694L503.585 208.492ZM620.292 269.599C620.279 269.608 620.27 269.616 620.262 269.629L592.491 297.398C582.674 307.215 553.983 287.467 531.479 264.963C519.911 253.394 510.38 241.535 504.639 231.565C497.718 219.542 496.618 211.035 501.373 206.28L527.625 180.028C528.235 179.417 529.226 179.417 529.837 180.028C530.447 180.638 530.447 181.629 529.837 182.24C526.069 186.009 541.03 209.403 566.699 235.072C578.174 246.547 589.494 256.1 598.574 261.972C608.333 268.283 615.25 270.217 618.05 267.417C618.053 267.413 618.061 267.406 618.065 267.402L618.08 267.387C618.689 266.776 619.681 266.776 620.292 267.387C620.901 267.998 620.901 268.988 620.292 269.599" fill="#502801" fill-rule="nonzero" opacity="1" stroke="none" vectornator:layerName="path"/>
<path d="M644.743 77.0546C661.105 60.2496 685.382 76.5944 710.488 96.5831C735.594 116.572 738.845 136.509 726.8 148.85C714.755 161.19 613.389 263.086 596.14 279.334C578.89 295.582 548.724 321.308 548.724 321.308C548.724 321.308 538.799 353.004 508.456 386.935C478.114 420.866 449.974 450.023 442.604 454.596C435.233 459.171 429.872 448.382 428.378 441.69C426.885 434.996 453.74 404.497 453.74 404.497C453.74 404.497 435.636 419.088 430.022 424.435C424.407 429.781 398.259 456.194 390.808 461.457C383.356 466.718 376.476 463.307 373.948 455.413C371.42 447.519 373.333 444.56 384.055 431.477C394.778 418.393 417.398 391.643 421.755 384.298C426.111 376.953 428.968 368.723 428.968 368.723C428.968 368.723 380.753 410.232 373.013 416.578C365.271 422.922 349.114 442.28 336.342 432.563C323.568 422.846 327.723 415.837 338.345 405.181C348.966 394.525 401.571 345.482 401.571 345.482C401.571 345.482 377.667 357.839 371.346 362.811C365.027 367.781 334.154 390.62 325.274 392.504C316.393 394.387 308.298 387.346 311.178 378.749C314.059 370.153 328.546 359.677 334.333 354.477C340.119 349.277 359.713 331.547 359.713 331.547C359.713 331.547 343.867 330.84 334.87 323.874C325.872 316.909 332.012 311.127 340.75 307.384C349.488 303.641 363.598 298.095 366.51 296.312C369.422 294.528 417.425 267.488 426.985 263.912C436.545 260.336 473.893 254.644 473.893 254.644L644.743 77.0546Z" fill="#f6c299" fill-rule="nonzero" opacity="1" stroke="none" vectornator:layerName="path"/>
<path d="M398.443 347.118C403.174 343.443 406.448 340.962 406.982 340.715C409.348 339.616 412.008 333.777 411.877 330.194C411.748 326.61 393.79 336.676 377.291 347.406C361.76 357.508 331.795 387.391 311.702 386.743C313.97 391.116 319.442 393.74 325.274 392.503C334.153 390.62 365.026 367.781 371.347 362.811C376.254 358.951 391.753 350.643 398.443 347.118" fill="#f4b284" fill-rule="nonzero" opacity="1" stroke="none" vectornator:layerName="path"/>
<path d="M715.817 101.156C709.527 115.697 693.001 147.388 653.763 193.125C598.51 257.526 547.721 307.581 527.198 312.124C527.198 312.124 530.4 330.585 504.009 371.227C477.619 411.867 454.749 440.033 432.529 451.363C435.064 454.945 438.523 457.129 442.605 454.596C449.974 450.023 478.114 420.866 508.457 386.935C538.799 353.004 548.724 321.308 548.724 321.308C548.724 321.308 578.889 295.582 596.139 279.334C613.389 263.086 714.756 161.19 726.801 148.85C737.926 137.452 735.958 119.57 715.817 101.156" fill="#f4b284" fill-rule="nonzero" opacity="1" stroke="none" vectornator:layerName="path"/>
<path d="M428.967 368.723C432.916 364.346 427.618 359.135 420.761 362.127C413.904 365.12 357.484 419.744 346.006 425.421C340.965 427.913 335.595 428.169 331.157 427.67C332.411 429.242 334.102 430.86 336.342 432.563C349.114 442.281 365.272 422.923 373.013 416.577C380.753 410.231 428.967 368.723 428.967 368.723" fill="#f4b284" fill-rule="nonzero" opacity="1" stroke="none" vectornator:layerName="path"/>
<path d="M334.87 323.874C343.868 330.84 359.712 331.547 359.712 331.547L391.409 305.942C391.409 305.942 408.883 296.485 415.741 293.492C422.599 290.5 407.654 290.535 397.399 295.298C387.143 300.06 368.216 313.332 357.206 318.984C346.202 324.634 337.357 319.232 330.592 316.011C330.08 318.399 331.203 321.036 334.87 323.874" fill="#f4b284" fill-rule="nonzero" opacity="1" stroke="none" vectornator:layerName="path"/>
<path d="M443.507 399.131C431.021 411.067 393.63 449.913 387.566 455.029C383.295 458.634 380.011 459.742 376.523 460.322C379.87 464.45 385.174 465.435 390.809 461.456C398.26 456.194 424.408 429.781 430.021 424.435C433.284 421.327 440.76 415.103 446.454 410.43C453.475 402.215 463.146 390.937 465.292 388.63C468.746 384.917 455.994 387.194 443.507 399.131" fill="#f4b284" fill-rule="nonzero" opacity="1" stroke="none" vectornator:layerName="path"/>
<path d="M459.64 258.338C459.64 258.338 458.543 258.103 456.753 257.717C445.563 259.642 432.018 262.209 426.791 264.156C417.249 267.711 369.343 294.626 366.437 296.403C363.531 298.179 349.446 303.693 340.725 307.416C335.558 309.621 331.331 312.547 330.592 316.011C330.592 316.011 352.608 305.965 356.976 305.476C361.343 304.987 395.674 286.222 413.112 276.809C430.551 267.396 459.64 258.338 459.64 258.338" fill="#ffffff" fill-rule="nonzero" opacity="1" stroke="none" vectornator:layerName="path"/>
<path d="M367.288 329.995C374.804 323.052 393.883 304.613 393.883 304.613C393.883 304.613 370.158 323.578 359.713 331.547C359.713 331.547 340.119 349.277 334.333 354.477C328.547 359.677 314.059 370.153 311.179 378.749C310.19 381.7 310.517 384.456 311.703 386.743C311.703 386.738 311.922 379.02 326.725 367.874C341.532 356.723 359.772 336.938 367.288 329.995" fill="#ffffff" fill-rule="nonzero" opacity="1" stroke="none" vectornator:layerName="path"/>
<path d="M331.156 427.671C331.156 427.671 325.894 423.827 347.046 402.881C368.198 381.933 405.111 343.702 405.111 343.702C405.111 343.702 360.366 383.652 350.06 392.849C339.754 402.047 324.116 418.239 331.156 427.671" fill="#ffffff" fill-rule="nonzero" opacity="1" stroke="none" vectornator:layerName="path"/>
<path d="M376.523 460.321C376.523 460.321 374.026 457.673 378.376 447.214C382.724 436.755 416.101 401.42 420.847 386.523C420.847 386.523 404.494 406.484 392.954 420.602C381.414 434.721 362.711 450.98 376.523 460.321" fill="#ffffff" fill-rule="nonzero" opacity="1" stroke="none" vectornator:layerName="path"/>
<path d="M432.529 451.362C432.529 451.362 430.24 446.397 433.902 438.049C437.565 429.702 457.966 399.705 457.966 399.705C457.966 399.705 435.663 427.095 430.612 434.062C425.563 441.029 429.436 446.229 432.529 451.362" fill="#ffffff" fill-rule="nonzero" opacity="1" stroke="none" vectornator:layerName="path"/>
<path d="M473.892 254.644C473.892 254.644 491.071 242.592 522.405 211.353C553.739 180.115 644.529 89.8131 644.742 77.0545C644.742 77.0545 554.872 170.575 543.963 181.779C533.053 192.982 473.892 254.644 473.892 254.644" fill="#ffffff" fill-rule="nonzero" opacity="1" stroke="none" vectornator:layerName="path"/>
<path d="M335.204 433.665C334.275 432.925 333.389 432.083 332.562 431.137C327.262 425.079 326.566 417.342 330.791 411.422C336.956 402.782 372.626 369.754 393.352 350.821C379.191 360.162 359.924 372.955 351.724 378.811L349.282 380.562C335.859 390.198 323.178 399.303 313.663 391.727C310.487 389.199 308.895 386.095 308.929 382.506C308.989 376.14 314.453 368.475 324.313 360.927C328.413 357.787 335.233 351.601 343.13 344.438C360.184 328.97 381.408 309.72 395.645 302.061C396.406 301.653 397.35 301.939 397.762 302.7C398.171 303.46 397.885 304.409 397.125 304.819C383.227 312.293 361.266 332.212 345.232 346.755C337.282 353.966 330.417 360.192 326.215 363.409C317.267 370.261 312.106 377.232 312.056 382.535C312.032 385.148 313.194 387.355 315.612 389.28C323.276 395.382 335.023 386.948 347.458 378.02L349.907 376.266C363.599 366.488 407.922 337.505 408.368 337.215C409.053 336.766 409.964 336.917 410.463 337.569C410.96 338.217 410.877 339.139 410.27 339.684C409.587 340.301 341.737 401.467 333.336 413.241C329.271 418.938 331.487 425.158 334.916 429.078C338.259 432.89 344.036 435.854 348.818 433.324C358.851 428.019 428.758 366.83 429.464 366.213C429.943 365.793 430.629 365.706 431.198 365.994C431.772 366.276 432.105 366.886 432.052 367.521C431.278 376.654 412.318 399.611 395.591 419.867C386.169 431.274 377.27 442.047 375.235 446.263C372.636 451.642 375.626 456.356 378.964 458.857C382.383 461.362 387.685 462.526 391.243 459.166C399.152 451.701 464.527 389.4 465.187 388.772C465.794 388.195 466.754 388.222 467.35 388.776C467.953 389.355 467.993 390.306 467.441 390.937C467.119 391.303 435.179 427.769 430.851 436.834C428.402 441.96 431.122 449.025 435.201 452.405C436.561 453.512 439.204 455.147 441.681 453.334C448.577 448.283 487.997 411.313 512.627 379.123C536.8 347.533 547.163 321.011 547.266 320.746C547.382 320.443 547.59 320.182 547.862 320.002C576.744 300.93 724.191 149.291 725.678 147.759C726.281 147.141 727.292 147.139 727.889 147.729C728.509 148.33 728.524 149.319 727.921 149.941C721.871 156.167 580.059 302.008 549.997 322.34C548.484 326.063 537.787 351.393 515.113 381.024C490.306 413.441 450.505 450.75 443.529 455.858C440.515 458.067 436.587 457.664 433.204 454.814C428.24 450.699 424.849 442.139 428.027 435.486C430.115 431.118 437.902 421.158 445.806 411.558C425.79 430.628 398.342 456.768 393.39 461.442C389.226 465.373 382.532 465.349 377.115 461.382C372.478 457.933 369.204 451.556 372.417 444.903C374.618 440.347 383.218 429.935 393.177 417.876C405.607 402.826 421.893 383.105 427.201 372.342C411.558 385.979 359.256 431.341 350.283 436.089C345.778 438.473 339.944 437.438 335.204 433.665" fill="#502801" fill-rule="nonzero" opacity="1" stroke="none" vectornator:layerName="path"/>
<path d="M334.203 325.344C333.324 324.644 332.495 323.883 331.733 323.054C329.055 320.141 329.14 317.4 329.683 315.616C332.117 307.606 348.716 301.919 354.341 300.559C357.945 299.689 368.045 293.788 378.739 287.542C393.399 278.978 410.019 269.271 421.824 264.974C435.33 260.058 449.61 257.9 460.035 256.324C465.59 255.484 469.977 254.82 471.714 254.076C475.227 252.001 522.859 201.923 564.883 157.74C601.543 119.196 636.171 82.7885 643.687 75.9008C644.323 75.3177 645.3 75.3729 645.897 75.9973C646.479 76.6343 646.436 77.6237 645.799 78.208C638.363 85.0218 603.771 121.392 567.15 159.896C510.52 219.434 475.921 255.679 472.945 256.951C470.84 257.853 466.504 258.509 460.503 259.416C450.207 260.974 436.107 263.106 422.895 267.913C411.353 272.114 394.143 282.166 380.316 290.243C368.477 297.158 359.126 302.62 355.075 303.601C348.123 305.282 334.416 310.798 332.676 316.525C332.388 317.472 332.217 318.957 334.036 320.937C342.014 329.608 359.235 330.142 359.408 330.15C360.268 330.172 360.953 330.887 360.932 331.752C360.909 332.615 360.192 333.298 359.33 333.276C358.635 333.258 343.565 332.797 334.203 325.344" fill="#502801" fill-rule="nonzero" opacity="1" stroke="none" vectornator:layerName="path"/>
<path d="M503.84 206.025C514.855 195.009 606.467 281.212 591.23 296.45C591.23 296.45 602.043 285.636 618.999 268.679C635.956 251.723 548.279 161.586 530.093 179.772C511.908 197.959 503.84 206.025 503.84 206.025" fill="#ee3956" fill-rule="nonzero" opacity="1" stroke="none" vectornator:layerName="path"/>
<path d="M597.164 237.437C590.733 234.804 590.272 230.662 588.722 225.301C587.476 220.991 584.364 214.941 580.15 212.897C577.523 211.623 575.735 210.859 572.791 210.488C564.974 209.503 562.933 205.673 559.712 199.777C557.623 195.953 555.004 190.509 550.83 188.452C544.438 185.299 532.33 187.405 529.142 180.723C527.62 182.245 526.173 183.692 524.796 185.069C526.687 188.805 530.278 191.572 535.076 191.906C539.754 192.234 544.992 191.585 549.014 194.881C551.95 197.286 553.698 202.013 555.434 205.301C557.595 209.391 561.152 214.615 566.01 215.756C570.018 216.696 575.718 217.491 578.637 219.975C582.733 223.461 583.373 230.867 585.149 235.696C587.057 240.884 592.417 242.376 597.027 244.261C605.426 247.694 600.723 258.921 606.029 264.226C610.493 268.69 612.367 265.291 615.13 272.548C616.385 271.293 617.666 270.013 618.999 268.68C619.249 268.43 619.471 268.162 619.675 267.882C617.71 264.799 615.027 262.181 611.712 260.448C608.219 258.622 608.876 246.835 605.6 243.264C603.003 240.435 600.789 238.922 597.164 237.437" fill="#f16f79" fill-rule="nonzero" opacity="1" stroke="none" vectornator:layerName="path"/>
<path d="M607.449 280.23C605.478 277.117 602.763 274.482 599.424 272.735C595.932 270.909 596.589 259.122 593.313 255.553C590.716 252.723 588.5 251.209 584.876 249.724C578.446 247.091 577.985 242.951 576.435 237.588C575.188 233.278 572.076 227.228 567.863 225.185C565.236 223.911 563.448 223.146 560.503 222.775C552.687 221.791 550.646 217.961 547.424 212.064C545.334 208.241 542.717 202.797 538.543 200.739C532.15 197.588 520.042 199.693 516.855 193.01C515.251 194.612 513.803 196.062 512.508 197.356C514.4 201.094 517.991 203.859 522.789 204.193C527.467 204.521 532.703 203.874 536.726 207.169C539.662 209.573 541.41 214.3 543.147 217.589C545.308 221.678 548.865 226.902 553.723 228.043C557.73 228.983 563.429 229.78 566.35 232.262C570.446 235.748 571.086 243.155 572.861 247.983C574.77 253.171 580.129 254.664 584.74 256.548C593.138 259.983 588.435 271.208 593.741 276.514C598.205 280.978 600.079 277.578 602.842 284.837C604.266 283.413 605.803 281.876 607.449 280.23" fill="#f16f79" fill-rule="nonzero" opacity="1" stroke="none" vectornator:layerName="path"/>
<path d="M529.837 180.028C529.837 180.028 551.62 180.165 584.081 213.61C616.542 247.053 621.147 262.743 621.147 262.743C621.147 262.743 616.875 237.51 587.728 211.043C558.581 184.577 540.791 174.494 535.998 177.076C531.204 179.658 529.837 180.028 529.837 180.028" fill="#ffffff" fill-rule="nonzero" opacity="1" stroke="none" vectornator:layerName="path"/>
<path d="M594.465 291.002L617.894 267.573C624.665 260.801 610.418 235.945 585.458 210.985C574.077 199.605 562.449 190.251 552.712 184.644C542.366 178.687 534.727 177.35 531.198 180.878L508.401 203.676C520.983 205.773 546.337 228.129 559.99 241.782C571.616 253.408 581.317 264.91 587.307 274.17C591.798 281.114 594.186 286.741 594.465 291.002M620.105 269.784L592.336 297.555C591.725 298.165 590.734 298.165 590.124 297.555C589.513 296.944 589.513 295.953 590.124 295.343C592.924 292.543 590.99 285.626 584.679 275.868C578.807 266.787 569.252 255.468 557.778 243.993C532.111 218.326 508.716 203.362 504.945 207.131C504.335 207.741 503.344 207.741 502.733 207.131C502.123 206.52 502.123 205.53 502.733 204.919L528.987 178.666C533.741 173.911 542.249 175.01 554.272 181.932C564.24 187.673 576.101 197.205 587.67 208.773C610.173 231.276 629.922 259.967 620.105 269.784" fill="#502801" fill-rule="nonzero" opacity="1" stroke="none" vectornator:layerName="path"/>
<path d="M274.141 200.458C280.483 206.799 193.132 297.263 184.361 288.492C184.361 288.492 190.586 294.716 200.346 304.478C210.108 314.238 299.723 226.039 289.254 215.57C278.785 205.101 274.141 200.458 274.141 200.458" fill="#f05c2a" fill-rule="nonzero" opacity="1" stroke="none" vectornator:layerName="path"/>
<path d="M275.295 203.822C270.762 216.068 241.259 246.019 234.528 252.749C222.934 264.344 211.85 274.395 203.317 281.052C195.967 286.785 191.356 289.373 188.359 290.279L201.452 303.372C204.169 306.089 223.404 294.385 252.446 265.343C263.866 253.923 273.743 242.73 280.257 233.827C290.54 219.771 288.424 216.951 288.148 216.675L275.295 203.822ZM183.225 287.357C183.836 286.747 184.826 286.747 185.437 287.357L185.452 287.372C185.457 287.377 185.462 287.382 185.466 287.386C185.7 287.62 187.11 287.8 190.77 285.841C213.061 273.91 273.905 209.029 272.915 201.428C272.429 200.814 272.469 199.919 273.036 199.351C273.646 198.74 274.637 198.74 275.248 199.351L290.36 214.463C293.488 217.592 291.081 224.33 282.782 235.673C276.174 244.703 266.188 256.024 254.658 267.554C249.876 272.336 207.69 314.034 199.24 305.584L183.254 289.598L183.225 289.569C182.615 288.958 182.615 287.968 183.225 287.357" fill="#502801" fill-rule="nonzero" opacity="1" stroke="none" vectornator:layerName="path"/>
<path d="M248.217 169.716C254.558 176.057 167.207 266.521 158.436 257.75C158.436 257.75 164.661 263.974 174.421 273.736C184.183 283.496 273.797 195.296 263.329 184.828C252.86 174.359 248.217 169.716 248.217 169.716" fill="#9b3913" fill-rule="nonzero" opacity="1" stroke="none" vectornator:layerName="path"/>
<path d="M249.37 173.082C244.837 185.327 215.335 215.277 208.602 222.01C197.009 233.603 185.924 243.655 177.394 250.309C170.043 256.043 165.431 258.631 162.434 259.537L175.528 272.63C178.245 275.347 197.48 263.643 226.523 234.599C237.943 223.181 247.817 211.989 254.333 203.085C264.615 189.03 262.498 186.21 262.222 185.934L249.37 173.082ZM157.301 256.614C157.911 256.004 158.902 256.004 159.513 256.614L159.528 256.63C159.532 256.634 159.538 256.64 159.542 256.644C159.776 256.878 161.185 257.058 164.846 255.099C187.137 243.168 247.979 178.288 246.99 170.687C246.503 170.074 246.543 169.178 247.11 168.61C247.721 168 248.711 168 249.322 168.61L264.434 183.722C267.563 186.851 265.155 193.59 256.856 204.932C250.25 213.961 240.264 225.282 228.735 236.811C223.952 241.594 181.766 283.292 173.316 274.842L157.33 258.856C157.322 258.845 157.313 258.836 157.301 258.826C156.69 258.215 156.69 257.225 157.301 256.614" fill="#502801" fill-rule="nonzero" opacity="1" stroke="none" vectornator:layerName="path"/>
<path d="M155.257 88.6895C138.895 71.8845 114.618 88.2293 89.5118 108.218C64.4059 128.207 61.1545 148.144 73.1996 160.485C85.2448 172.825 186.611 274.721 203.86 290.969C221.11 307.217 251.276 332.942 251.276 332.942C251.276 332.942 261.201 364.639 291.544 398.57C321.886 432.501 350.026 461.658 357.396 466.231C364.767 470.805 370.128 460.017 371.622 453.325C373.115 446.631 346.26 416.132 346.26 416.132C346.26 416.132 364.364 430.723 369.978 436.069C375.593 441.416 401.741 467.829 409.192 473.091C416.644 478.353 423.524 474.942 426.052 467.048C428.58 459.154 426.667 456.195 415.945 443.111C405.222 430.028 382.602 403.278 378.245 395.933C373.889 388.587 371.032 380.358 371.032 380.358C371.032 380.358 419.247 421.866 426.987 428.212C434.729 434.557 450.886 453.915 463.658 444.197C476.432 434.481 472.277 427.471 461.655 416.816C451.034 406.16 398.429 357.117 398.429 357.117C398.429 357.117 422.333 369.474 428.654 374.446C434.973 379.416 465.846 402.255 474.726 404.139C483.607 406.021 491.702 398.981 488.822 390.384C485.941 381.787 471.454 371.312 465.667 366.112C459.881 360.912 440.287 343.182 440.287 343.182C440.287 343.182 456.133 342.475 465.13 335.509C474.128 328.544 467.988 322.762 459.249 319.019C450.512 315.276 436.402 309.73 433.49 307.947C430.578 306.162 382.573 279.123 373.015 275.547C363.455 271.971 326.107 266.279 326.107 266.279L155.257 88.6895Z" fill="#f2a37e" fill-rule="nonzero" opacity="1" stroke="none" vectornator:layerName="path"/>
<path d="M401.557 358.753C396.826 355.077 393.552 352.597 393.018 352.35C390.652 351.25 387.992 345.412 388.123 341.828C388.252 338.245 406.21 348.311 422.709 359.041C438.24 369.142 468.205 399.026 488.298 398.378C486.03 402.751 480.558 405.374 474.726 404.138C465.847 402.255 434.974 379.416 428.653 374.445C423.746 370.587 408.247 362.277 401.557 358.753" fill="#f19368" fill-rule="nonzero" opacity="1" stroke="none" vectornator:layerName="path"/>
<path d="M84.1832 112.791C90.4741 127.331 106.999 159.023 146.237 204.76C201.49 269.161 252.279 319.216 272.802 323.759C272.802 323.759 269.6 342.22 295.991 382.862C322.381 423.502 345.251 451.668 367.471 462.997C364.938 466.58 361.477 468.764 357.395 466.231C350.026 461.658 321.886 432.501 291.543 398.57C261.201 364.639 251.276 332.942 251.276 332.942C251.276 332.942 221.111 307.217 203.861 290.969C186.611 274.721 85.244 172.825 73.1989 160.485C62.0741 149.087 64.0415 131.205 84.1832 112.791" fill="#f19368" fill-rule="nonzero" opacity="1" stroke="none" vectornator:layerName="path"/>
<path d="M371.033 380.358C367.084 375.981 372.382 370.769 379.239 373.763C386.096 376.754 442.516 431.379 453.994 437.055C459.035 439.548 464.405 439.804 468.843 439.306C467.589 440.877 465.898 442.495 463.658 444.198C450.886 453.915 434.728 434.557 426.987 428.213C419.247 421.867 371.033 380.358 371.033 380.358" fill="#f19368" fill-rule="nonzero" opacity="1" stroke="none" vectornator:layerName="path"/>
<path d="M465.13 335.509C456.132 342.475 440.288 343.182 440.288 343.182L408.591 317.577C408.591 317.577 391.117 308.12 384.259 305.127C377.401 302.135 392.346 302.17 402.601 306.932C412.857 311.695 431.784 324.966 442.794 330.619C453.798 336.269 462.643 330.867 469.408 327.646C469.92 330.033 468.797 332.67 465.13 335.509" fill="#f19368" fill-rule="nonzero" opacity="1" stroke="none" vectornator:layerName="path"/>
<path d="M356.493 410.765C368.979 422.701 406.37 461.546 412.434 466.664C416.705 470.269 419.989 471.377 423.477 471.956C420.13 476.084 414.826 477.07 409.191 473.091C401.74 467.829 375.592 441.416 369.979 436.069C366.716 432.962 359.24 426.738 353.546 422.064C346.525 413.85 336.854 402.572 334.708 400.265C331.254 396.552 344.006 398.829 356.493 410.765" fill="#f19368" fill-rule="nonzero" opacity="1" stroke="none" vectornator:layerName="path"/>
<path d="M340.36 269.973C340.36 269.973 341.457 269.738 343.247 269.353C354.437 271.278 367.982 273.843 373.209 275.791C382.751 279.346 430.657 306.262 433.563 308.038C436.469 309.813 450.554 315.328 459.275 319.051C464.442 321.255 468.669 324.182 469.408 327.645C469.408 327.645 447.392 317.6 443.024 317.111C438.657 316.622 404.326 297.857 386.888 288.444C369.449 279.031 340.36 269.973 340.36 269.973" fill="#ffffff" fill-rule="nonzero" opacity="1" stroke="none" vectornator:layerName="path"/>
<path d="M432.712 341.629C425.196 334.686 406.117 316.248 406.117 316.248C406.117 316.248 429.842 335.213 440.287 343.182C440.287 343.182 459.881 360.912 465.667 366.112C471.453 371.312 485.941 381.787 488.821 390.384C489.81 393.335 489.483 396.091 488.297 398.378C488.297 398.373 488.078 390.655 473.275 379.509C458.468 368.358 440.228 348.572 432.712 341.629" fill="#ffffff" fill-rule="nonzero" opacity="1" stroke="none" vectornator:layerName="path"/>
<path d="M468.844 439.305C468.844 439.305 474.106 435.462 452.954 414.516C431.802 393.568 394.889 355.337 394.889 355.337C394.889 355.337 439.634 395.287 449.94 404.484C460.246 413.682 475.884 429.874 468.844 439.305" fill="#ffffff" fill-rule="nonzero" opacity="1" stroke="none" vectornator:layerName="path"/>
<path d="M423.477 471.956C423.477 471.956 425.974 469.308 421.624 458.849C417.276 448.39 383.899 413.055 379.153 398.158C379.153 398.158 395.506 418.119 407.046 432.237C418.586 446.356 437.289 462.615 423.477 471.956" fill="#ffffff" fill-rule="nonzero" opacity="1" stroke="none" vectornator:layerName="path"/>
<path d="M367.471 462.997C367.471 462.997 369.76 458.031 366.098 449.684C362.435 441.337 342.034 411.339 342.034 411.339C342.034 411.339 364.337 438.73 369.388 445.697C374.437 452.663 370.564 457.862 367.471 462.997" fill="#ffffff" fill-rule="nonzero" opacity="1" stroke="none" vectornator:layerName="path"/>
<path d="M326.108 266.279C326.108 266.279 308.929 254.225 277.595 222.988C246.261 191.75 155.471 101.447 155.258 88.6894C155.258 88.6894 245.128 182.21 256.037 193.414C266.945 204.616 326.108 266.279 326.108 266.279" fill="#ffffff" fill-rule="nonzero" opacity="1" stroke="none" vectornator:layerName="path"/>
<path d="M464.796 445.3C465.725 444.56 466.611 443.716 467.439 442.772C472.738 436.714 473.434 428.976 469.209 423.057C463.044 414.417 427.374 381.389 406.648 362.456C420.809 371.797 440.076 384.59 448.276 390.446L450.718 392.196C464.141 401.833 476.822 410.936 486.337 403.361C489.513 400.833 491.105 397.73 491.071 394.141C491.011 387.775 485.547 380.11 475.687 372.561C471.587 369.422 464.767 363.235 456.87 356.072C439.816 340.605 418.592 321.355 404.355 313.696C403.594 313.288 402.65 313.573 402.238 314.335C401.829 315.094 402.115 316.044 402.875 316.454C416.773 323.928 438.734 343.847 454.768 358.39C462.718 365.601 469.583 371.827 473.785 375.044C482.733 381.896 487.894 388.866 487.945 394.17C487.968 396.783 486.806 398.99 484.388 400.915C476.724 407.017 464.977 398.583 452.542 389.655L450.095 387.901C436.401 378.123 392.078 349.139 391.632 348.85C390.947 348.401 390.036 348.55 389.537 349.203C389.04 349.852 389.123 350.773 389.73 351.319C390.414 351.936 458.263 413.102 466.664 424.875C470.73 430.571 468.513 436.792 465.084 440.713C461.741 444.525 455.964 447.489 451.182 444.959C441.149 439.652 371.242 378.465 370.536 377.848C370.057 377.428 369.371 377.341 368.802 377.628C368.228 377.911 367.895 378.521 367.948 379.156C368.722 388.289 387.682 411.246 404.409 431.5C413.831 442.909 422.73 453.682 424.765 457.898C427.364 463.277 424.374 467.991 421.036 470.492C417.617 472.996 412.315 474.161 408.757 470.799C400.848 463.336 335.473 401.035 334.813 400.407C334.206 399.83 333.246 399.857 332.65 400.411C332.047 400.99 332.007 401.941 332.559 402.571C332.881 402.938 364.821 439.404 369.149 448.467C371.598 453.595 368.878 460.66 364.799 464.04C363.439 465.147 360.796 466.782 358.319 464.969C351.423 459.918 312.003 422.948 287.373 390.758C263.2 359.168 252.837 332.644 252.734 332.38C252.618 332.077 252.41 331.817 252.138 331.637C223.256 312.565 75.8093 160.925 74.3221 159.394C73.719 158.776 72.7084 158.774 72.1115 159.364C71.4908 159.965 71.4758 160.954 72.0789 161.576C78.129 167.802 219.941 313.642 250.003 333.973C251.516 337.698 262.213 363.028 284.887 392.659C309.694 425.075 349.495 462.384 356.471 467.493C359.487 469.702 363.413 469.299 366.796 466.448C371.76 462.334 375.151 453.774 371.973 447.121C369.885 442.753 362.1 432.793 354.194 423.193C374.21 442.262 401.658 468.402 406.61 473.077C410.776 477.006 417.468 476.984 422.885 473.016C427.522 469.567 430.796 463.191 427.583 456.537C425.382 451.982 416.782 441.569 406.823 429.509C394.393 414.461 378.107 394.739 372.799 383.977C388.442 397.613 440.744 442.976 449.717 447.724C454.224 450.107 460.056 449.073 464.796 445.3" fill="#502801" fill-rule="nonzero" opacity="1" stroke="none" vectornator:layerName="path"/>
<path d="M465.797 336.978C466.676 336.279 467.505 335.518 468.267 334.689C470.945 331.776 470.86 329.035 470.317 327.249C467.883 319.241 451.284 313.554 445.659 312.194C442.055 311.323 431.955 305.422 421.261 299.177C406.599 290.612 389.981 280.906 378.174 276.609C364.67 271.693 350.39 269.535 339.965 267.959C334.41 267.119 330.023 266.454 328.286 265.711C324.773 263.636 277.141 213.558 235.117 169.375C198.457 130.831 163.829 94.4233 156.313 87.5356C155.677 86.9512 154.7 87.0077 154.103 87.6321C153.521 88.2691 153.564 89.2584 154.201 89.8428C161.637 96.6565 196.229 133.026 232.85 171.53C289.48 231.069 324.079 267.313 327.055 268.586C329.16 269.488 333.496 270.143 339.497 271.051C349.793 272.609 363.893 274.74 377.105 279.548C388.647 283.748 405.857 293.801 419.684 301.878C431.523 308.793 440.874 314.255 444.925 315.236C451.877 316.917 465.584 322.433 467.324 328.16C467.612 329.106 467.783 330.592 465.964 332.571C457.986 341.243 440.765 341.777 440.592 341.785C439.732 341.807 439.047 342.522 439.068 343.387C439.091 344.25 439.808 344.933 440.67 344.911C441.365 344.893 456.435 344.432 465.797 336.978" fill="#502801" fill-rule="nonzero" opacity="1" stroke="none" vectornator:layerName="path"/>
<path d="M288.47 214.787C282.129 208.446 191.665 295.796 200.437 304.567C200.437 304.567 194.212 298.343 184.45 288.582C174.69 278.821 262.889 189.206 273.358 199.675C283.827 210.144 288.47 214.787 288.47 214.787" fill="#f89c2a" fill-rule="nonzero" opacity="1" stroke="none" vectornator:layerName="path"/>
<path d="M262.545 184.045C256.204 177.704 165.74 265.054 174.512 273.825C174.512 273.825 168.287 267.601 158.525 257.84C148.765 248.078 236.964 158.464 247.433 168.932C257.902 179.401 262.545 184.045 262.545 184.045" fill="#f05c2a" fill-rule="nonzero" opacity="1" stroke="none" vectornator:layerName="path"/>
<path d="M253.586 234.6C254.536 235.628 255.284 236.586 256.048 237.614C255.076 238.496 254.097 239.39 253.111 240.299C249.668 237.119 246.196 234 242.551 231.019C239.762 228.736 236.63 226.756 233.749 224.538C235.214 223.187 236.671 221.862 238.117 220.576C240.304 222.019 242.29 224.033 244.243 225.674C247.562 228.463 250.646 231.415 253.586 234.6" fill="#f05c2a" fill-rule="nonzero" opacity="1" stroke="none" vectornator:layerName="path"/>
<path d="M224.378 233.494C225.647 232.241 226.92 231.001 228.194 229.776C232.255 230.832 235.989 234.147 239.285 236.448C242.653 238.798 245.997 241.308 248.852 244.271C247.725 245.334 246.595 246.41 245.463 247.496C241.76 245.249 238.253 242.586 234.613 240.294C231.187 238.138 226.894 236.667 224.378 233.494" fill="#f05c2a" fill-rule="nonzero" opacity="1" stroke="none" vectornator:layerName="path"/>
<path d="M265.432 229.359C264.439 230.203 263.423 231.078 262.396 231.972C260.444 228.31 258.761 224.496 256.949 220.768C255.132 217.029 252.756 213.431 251.402 209.497C252.485 208.664 253.543 207.874 254.578 207.124C257.413 210.394 259.119 214.572 260.984 218.476C262.666 221.996 264.24 225.624 265.432 229.359" fill="#f05c2a" fill-rule="nonzero" opacity="1" stroke="none" vectornator:layerName="path"/>
<path d="M192.613 289.981C196.178 291.613 199.874 292.995 203.622 294.201C202.696 295.644 201.923 296.974 201.323 298.177C198.101 297.649 194.787 296.848 191.621 295.752C189.531 293.662 187.129 291.262 184.451 288.582C183.893 288.025 183.67 287.195 183.719 286.152C186.74 287.053 189.523 288.567 192.613 289.981" fill="#f05c2a" fill-rule="nonzero" opacity="1" stroke="none" vectornator:layerName="path"/>
<path d="M219.598 250.913C222.186 255.921 224.752 261.064 226.708 266.394C225.577 267.592 224.469 268.785 223.379 269.969C220.623 265.55 218.203 260.893 215.743 256.318C214.243 253.53 212.303 250.69 210.609 247.758C212.161 246.068 213.746 244.371 215.358 242.677C216.915 245.319 218.189 248.186 219.598 250.913" fill="#f05c2a" fill-rule="nonzero" opacity="1" stroke="none" vectornator:layerName="path"/>
<path d="M212.281 264.787C214.25 268.127 216.506 272.082 217.864 276.087C216.638 277.481 215.452 278.852 214.316 280.194C211.793 277.046 210.131 273.054 208.183 269.611C206.061 265.86 203.222 262.393 201.029 258.642C202.277 257.157 203.57 255.647 204.904 254.121C207.868 257.238 210.107 261.101 212.281 264.787" fill="#f05c2a" fill-rule="nonzero" opacity="1" stroke="none" vectornator:layerName="path"/>
<path d="M195.268 277.588C200.199 280.296 204.814 283.318 209.933 285.529C209.011 286.691 208.142 287.819 207.327 288.91C203.849 288.086 200.557 286.698 197.193 285.078C194.151 283.613 189.24 282.141 185.858 279.841C186.699 278.202 187.765 276.397 189.033 274.449C191.216 275.18 193.345 276.531 195.268 277.588" fill="#f05c2a" fill-rule="nonzero" opacity="1" stroke="none" vectornator:layerName="path"/>
<path d="M268.114 209.525C270.236 213.592 272.391 218.044 273.788 222.555C272.734 223.369 271.641 224.233 270.513 225.145C268.046 220.911 266.06 216.293 263.793 211.977C262.347 209.225 260.588 206.628 259.398 203.813C260.814 202.904 262.163 202.093 263.42 201.416C265.33 203.838 266.666 206.748 268.114 209.525" fill="#f05c2a" fill-rule="nonzero" opacity="1" stroke="none" vectornator:layerName="path"/>
<path d="M184.082 228.977C188.798 229.931 193.622 230.681 198.374 231.675C197.843 228.089 197.949 224.3 197.605 220.781C197.113 215.754 196.235 210.789 195.374 205.821C197.585 203.591 199.821 201.388 202.062 199.231C204.397 200.085 206.702 200.989 208.942 201.66C214.858 203.433 220.847 204.959 226.797 206.611C226.194 202.752 226.364 198.704 226.273 194.853C226.14 189.253 226.198 183.624 226.447 178.015C229.009 176.079 231.43 174.375 233.668 172.947C234.838 173.418 236.008 173.906 237.202 174.425C245.079 177.853 253.352 180.332 261.204 183.748C260.139 183.88 258.601 184.547 256.674 185.67C247.529 184.063 238.45 180.363 229.66 176.711C229.805 182.079 229.882 187.448 230.084 192.815C230.248 197.189 230.892 201.911 230.621 206.421C229.365 207.558 228.095 208.719 226.813 209.902C221.304 209.268 215.834 208.207 210.413 207.086C207.263 206.435 203.48 205.806 199.83 204.806C200.536 208.621 201.069 212.468 201.554 216.342C202.18 221.342 203.597 227.413 203.04 232.752C203.173 232.786 203.302 232.828 203.434 232.863C202.19 234.162 200.965 235.456 199.761 236.741C199.68 236.534 199.601 236.326 199.519 236.118C194.869 235.636 190.229 234.806 185.646 234.118C182.09 233.584 178.248 233.209 174.494 232.539C175.509 236.556 176.263 240.637 176.847 244.823C177.582 250.083 178.683 255.456 179.482 260.815C178.2 262.64 177.104 264.334 176.239 265.857C172.249 265.718 168.494 265.058 164.778 264.093C162.993 262.306 160.999 260.312 158.822 258.135C160.477 258.436 162.117 258.925 163.853 259.52C167.667 260.828 171.439 262.088 175.341 262.944C174.045 258.218 173.6 253.12 172.995 248.462C172.341 243.416 171.632 238.4 170.571 233.46C172.168 231.437 173.875 229.351 175.679 227.216C178.519 227.777 181.343 228.423 184.082 228.977" fill="#f89c2a" fill-rule="nonzero" opacity="1" stroke="none" vectornator:layerName="path"/>
<path d="M274.141 200.458C274.141 200.458 252.692 206.629 220.565 242.471C188.439 278.311 183.225 287.357 183.225 287.357C183.225 287.357 189.788 268.096 213.952 244.335C238.116 220.576 260.863 200.191 266.057 199.489C271.251 198.788 272.055 198.257 274.141 200.458" fill="#ffffff" fill-rule="nonzero" opacity="1" stroke="none" vectornator:layerName="path"/>
<path d="M248.071 170.095C248.071 170.095 226.621 176.266 194.495 212.108C162.369 247.948 157.155 256.994 157.155 256.994C157.155 256.994 163.718 237.733 187.882 213.972C212.046 190.213 234.792 169.828 239.986 169.126C245.181 168.425 245.985 167.895 248.071 170.095" fill="#ffffff" fill-rule="nonzero" opacity="1" stroke="none" vectornator:layerName="path"/>
<path d="M207.876 285.611C214.533 277.079 224.583 265.995 236.178 254.4C242.908 247.67 272.86 218.165 285.106 213.632L272.252 200.78C271.978 200.505 269.157 198.387 255.102 208.671C246.198 215.185 235.006 225.062 223.586 236.48C194.543 265.524 182.838 284.758 185.556 287.477L198.65 300.57C199.555 297.572 202.142 292.96 207.876 285.611M221.374 234.269C232.904 222.739 244.226 212.752 253.255 206.146C264.597 197.847 271.337 195.439 274.464 198.568L289.576 213.68C290.187 214.291 290.187 215.281 289.576 215.892C289.009 216.46 288.114 216.5 287.5 216.013C279.898 215.024 215.017 275.868 203.087 298.159C201.127 301.818 201.308 303.228 201.541 303.462C202.152 304.072 202.152 305.063 201.541 305.674C200.932 306.284 199.94 306.284 199.329 305.674L183.344 289.689C174.894 281.237 216.593 239.05 221.374 234.269" fill="#502801" fill-rule="nonzero" opacity="1" stroke="none" vectornator:layerName="path"/>
<path d="M181.952 254.869C188.608 246.338 198.658 235.254 210.253 223.659C216.984 216.928 246.935 187.426 259.179 182.893L246.327 170.039C246.052 169.764 243.232 167.646 229.176 177.931C220.273 184.444 209.08 194.321 197.661 205.74C168.618 234.783 156.914 254.016 159.632 256.735L172.726 269.828C173.631 266.83 176.218 262.218 181.952 254.869M195.449 203.528C206.978 192 218.3 182.011 227.329 175.406C238.672 167.107 245.41 164.7 248.539 167.827L263.651 182.939C264.262 183.55 264.262 184.54 263.651 185.151C263.084 185.719 262.188 185.759 261.574 185.273C253.973 184.283 189.093 245.126 177.163 267.417C175.203 271.076 175.384 272.486 175.617 272.719C176.228 273.33 176.228 274.321 175.617 274.931C175.008 275.542 174.016 275.542 173.405 274.931L157.42 258.945C148.97 250.495 190.668 208.31 195.449 203.528" fill="#502801" fill-rule="nonzero" opacity="1" stroke="none" vectornator:layerName="path"/>
<path d="M578.824 545.104C563.264 529.544 470.538 614.632 492.06 636.154C492.06 636.154 478.996 618.45 455.045 594.499C431.094 570.548 514.356 484.596 540.043 510.282C565.729 535.97 578.824 545.104 578.824 545.104" fill="#448c91" fill-rule="nonzero" opacity="1" stroke="none" vectornator:layerName="path"/>
<path d="M571.94 541.751C565.642 536.633 554.653 527.105 538.937 511.389C532.122 504.575 521.338 507.166 513.493 510.536C503.186 514.966 491.52 523.395 480.643 534.271C460.376 554.539 444.904 582.147 456.151 593.394C470.642 607.885 481.165 620.098 487.25 627.535C487.313 611.124 508.967 587.345 516.473 579.601C534.787 560.704 558.4 543.08 571.94 541.751M490.954 637.261C490.207 636.513 489.565 635.681 489.044 634.783C484.675 629.175 472.645 614.311 453.939 595.606C440.523 582.19 457.23 553.262 478.431 532.06C489.581 520.91 501.595 512.246 512.257 507.662C524.784 502.279 534.774 502.803 541.148 509.177C561.506 529.534 573.826 539.395 578.266 542.752C578.88 543.09 579.439 543.509 579.93 543.998C580.503 544.571 580.542 545.487 580.022 546.107C579.503 546.728 578.594 546.85 577.928 546.387C577.928 546.387 577.479 546.073 576.585 545.401C568.3 541.287 541.877 557.883 518.718 581.779C497.273 603.906 486.667 624.003 491.651 633.041C492.757 634.463 493.318 635.227 493.318 635.227C493.803 635.885 493.7 636.807 493.081 637.34C492.46 637.873 491.532 637.839 490.954 637.261" fill="#502801" fill-rule="nonzero" opacity="1" stroke="none" vectornator:layerName="path"/>
<path d="M667.048 641.107C683.853 657.47 667.509 681.747 647.52 706.853C627.531 731.959 607.594 735.21 595.253 723.165C582.913 711.12 481.017 609.753 464.769 592.504C448.521 575.254 422.796 545.089 422.796 545.089C422.796 545.089 391.099 535.164 357.168 504.821C323.237 474.478 294.08 446.339 289.507 438.969C284.932 431.598 295.721 426.236 302.413 424.743C309.107 423.249 339.606 450.105 339.606 450.105C339.606 450.105 325.015 432.001 319.668 426.387C314.322 420.772 287.909 394.625 282.647 387.173C277.385 379.721 280.796 372.841 288.69 370.313C296.584 367.785 299.543 369.697 312.626 380.419C325.71 391.143 352.46 413.762 359.805 418.12C367.15 422.476 375.38 425.332 375.38 425.332C375.38 425.332 333.872 377.118 327.525 369.377C321.181 361.636 301.823 345.479 311.541 332.707C321.257 319.933 328.267 324.087 338.922 334.709C349.578 345.331 398.621 397.935 398.621 397.935C398.621 397.935 386.264 374.032 381.292 367.711C376.322 361.391 353.483 330.519 351.599 321.638C349.717 312.758 356.757 304.663 365.354 307.543C373.95 310.423 384.426 324.911 389.626 330.698C394.826 336.483 412.556 356.077 412.556 356.077C412.556 356.077 413.263 340.233 420.229 331.235C427.194 322.236 432.976 328.377 436.719 337.114C440.462 345.853 446.008 359.963 447.792 362.875C449.575 365.786 476.615 413.791 480.191 423.35C483.767 432.91 489.459 470.258 489.459 470.258L667.048 641.107Z" fill="#f3ad82" fill-rule="nonzero" opacity="1" stroke="none" vectornator:layerName="path"/>
<path d="M396.985 394.808C400.661 399.539 403.141 402.813 403.388 403.347C404.488 405.713 410.326 408.372 413.909 408.242C417.493 408.113 407.427 390.154 396.697 373.655C386.595 358.124 356.712 328.159 357.36 308.067C352.987 310.335 350.363 315.807 351.6 321.639C353.483 330.518 376.322 361.391 381.293 367.712C385.152 372.618 393.461 388.118 396.985 394.808" fill="#f1986d" fill-rule="nonzero" opacity="1" stroke="none" vectornator:layerName="path"/>
<path d="M642.947 712.181C628.407 705.892 596.715 689.365 550.978 650.128C486.576 594.875 436.522 544.085 431.979 523.562C431.979 523.562 413.518 526.765 372.876 500.374C332.236 473.984 304.07 451.113 292.741 428.894C289.158 431.427 286.974 434.888 289.507 438.969C294.08 446.339 323.237 474.479 357.168 504.821C391.099 535.164 422.796 545.088 422.796 545.088C422.796 545.088 448.521 575.254 464.769 592.504C481.017 609.754 582.913 711.121 595.253 723.166C606.651 734.29 624.533 732.323 642.947 712.181" fill="#f1986d" fill-rule="nonzero" opacity="1" stroke="none" vectornator:layerName="path"/>
<path d="M375.38 425.332C379.757 429.281 384.968 423.983 381.975 417.125C378.983 410.268 324.359 353.848 318.683 342.371C316.19 337.33 315.934 331.959 316.433 327.52C314.861 328.776 313.243 330.467 311.54 332.707C301.822 345.479 321.18 361.636 327.527 369.377C333.871 377.118 375.38 425.332 375.38 425.332" fill="#f1986d" fill-rule="nonzero" opacity="1" stroke="none" vectornator:layerName="path"/>
<path d="M420.229 331.234C413.263 340.232 412.557 356.077 412.557 356.077L438.161 387.775C438.161 387.775 447.618 405.248 450.611 412.106C453.603 418.963 453.568 404.019 448.805 393.763C444.043 383.507 430.772 364.581 425.119 353.57C419.469 342.567 424.871 333.722 428.092 326.957C425.705 326.444 423.068 327.568 420.229 331.234" fill="#f1986d" fill-rule="nonzero" opacity="1" stroke="none" vectornator:layerName="path"/>
<path d="M344.973 439.872C333.037 427.385 294.19 389.995 289.074 383.931C285.469 379.66 284.361 376.376 283.782 372.888C279.654 376.234 278.668 381.538 282.647 387.174C287.909 394.624 314.322 420.772 319.669 426.386C322.776 429.649 329 437.125 333.674 442.819C341.888 449.839 353.166 459.511 355.473 461.656C359.186 465.111 356.909 452.358 344.973 439.872" fill="#f1986d" fill-rule="nonzero" opacity="1" stroke="none" vectornator:layerName="path"/>
<path d="M485.765 456.005C485.765 456.005 486 454.909 486.386 453.117C484.461 441.927 481.894 428.382 479.947 423.156C476.392 413.614 449.477 365.708 447.7 362.803C445.925 359.896 440.41 345.811 436.687 337.09C434.483 331.922 431.556 327.695 428.093 326.957C428.093 326.957 438.138 348.973 438.627 353.34C439.117 357.708 457.881 392.039 467.294 409.477C476.707 426.915 485.765 456.005 485.765 456.005" fill="#ffffff" fill-rule="nonzero" opacity="1" stroke="none" vectornator:layerName="path"/>
<path d="M414.108 363.652C421.051 371.168 439.49 390.248 439.49 390.248C439.49 390.248 420.525 366.522 412.556 356.077C412.556 356.077 394.826 336.484 389.626 330.698C384.426 324.911 373.951 310.423 365.354 307.543C362.403 306.555 359.647 306.881 357.36 308.067C357.365 308.067 365.083 308.287 376.229 323.089C387.38 337.897 407.166 356.136 414.108 363.652" fill="#ffffff" fill-rule="nonzero" opacity="1" stroke="none" vectornator:layerName="path"/>
<path d="M316.432 327.521C316.432 327.521 320.276 322.258 341.222 343.411C362.17 364.563 400.401 401.476 400.401 401.476C400.401 401.476 360.451 356.731 351.254 346.425C342.056 336.119 325.864 320.48 316.432 327.521" fill="#ffffff" fill-rule="nonzero" opacity="1" stroke="none" vectornator:layerName="path"/>
<path d="M283.782 372.887C283.782 372.887 286.43 370.391 296.889 374.74C307.348 379.089 342.683 412.466 357.58 417.212C357.58 417.212 337.619 400.858 323.501 389.318C309.382 377.779 293.123 359.075 283.782 372.887" fill="#ffffff" fill-rule="nonzero" opacity="1" stroke="none" vectornator:layerName="path"/>
<path d="M292.741 428.894C292.741 428.894 297.706 426.604 306.054 430.266C314.401 433.929 344.399 454.331 344.399 454.331C344.399 454.331 317.008 432.026 310.041 426.977C303.074 421.927 297.876 425.801 292.741 428.894" fill="#ffffff" fill-rule="nonzero" opacity="1" stroke="none" vectornator:layerName="path"/>
<path d="M489.459 470.257C489.459 470.257 501.513 487.436 532.75 518.77C563.988 550.104 654.291 640.894 667.048 641.107C667.048 641.107 573.528 551.236 562.324 540.327C551.121 529.418 489.459 470.257 489.459 470.257" fill="#ffffff" fill-rule="nonzero" opacity="1" stroke="none" vectornator:layerName="path"/>
<path d="M310.438 331.569C311.178 330.64 312.021 329.753 312.966 328.926C319.024 323.627 326.762 322.931 332.68 327.155C341.321 333.321 374.349 368.991 393.282 389.717C383.941 375.555 371.148 356.289 365.292 348.088L363.541 345.647C353.905 332.224 344.8 319.543 352.377 310.028C354.904 306.852 358.008 305.259 361.597 305.293C367.963 305.354 375.628 310.818 383.177 320.678C386.316 324.778 392.502 331.598 399.666 339.495C415.133 356.548 434.383 377.772 442.042 392.009C442.45 392.77 442.165 393.715 441.403 394.127C440.644 394.536 439.694 394.251 439.284 393.49C431.81 379.592 411.891 357.631 397.348 341.597C390.137 333.647 383.91 326.782 380.694 322.58C373.842 313.632 366.871 308.471 361.568 308.419C358.955 308.397 356.748 309.559 354.823 311.977C348.721 319.641 357.155 331.387 366.083 343.822L367.837 346.27C377.615 359.964 406.598 404.286 406.888 404.733C407.337 405.417 407.187 406.329 406.535 406.828C405.886 407.325 404.965 407.242 404.418 406.635C403.802 405.95 342.636 338.102 330.862 329.701C325.165 325.634 318.945 327.851 315.025 331.281C311.213 334.624 308.249 340.4 310.779 345.183C316.084 355.216 377.273 425.123 377.89 425.829C378.31 426.308 378.397 426.993 378.109 427.563C377.827 428.137 377.217 428.469 376.582 428.417C367.449 427.643 344.492 408.683 324.236 391.955C312.829 382.533 302.056 373.634 297.84 371.599C292.461 369.001 287.747 371.989 285.246 375.328C282.742 378.748 281.577 384.049 284.937 387.608C292.402 395.516 354.703 460.892 355.331 461.551C355.908 462.158 355.881 463.119 355.327 463.714C354.748 464.318 353.797 464.358 353.167 463.806C352.8 463.484 316.334 431.544 307.269 427.215C302.143 424.766 295.078 427.486 291.698 431.565C290.591 432.926 288.956 435.569 290.769 438.045C295.82 444.942 332.79 484.361 364.98 508.992C396.57 533.166 423.092 543.527 423.357 543.63C423.661 543.747 423.921 543.955 424.101 544.227C443.173 573.109 594.813 720.555 596.344 722.043C596.962 722.646 596.964 723.656 596.374 724.253C595.773 724.874 594.784 724.889 594.162 724.286C587.936 718.236 442.094 576.424 421.763 546.361C418.04 544.849 392.71 534.152 363.079 511.477C330.663 486.671 293.353 446.868 288.245 439.894C286.036 436.879 286.439 432.952 289.29 429.569C293.404 424.605 301.964 421.214 308.617 424.392C312.985 426.479 322.945 434.265 332.545 442.171C313.475 422.155 287.335 394.706 282.661 389.755C278.73 385.589 278.754 378.897 282.722 373.48C286.17 368.843 292.547 365.569 299.201 368.782C303.756 370.982 314.169 379.583 326.227 389.541C341.277 401.97 360.999 418.257 371.761 423.565C358.125 407.923 312.76 355.621 308.014 346.647C305.631 342.142 306.665 336.309 310.438 331.569" fill="#502801" fill-rule="nonzero" opacity="1" stroke="none" vectornator:layerName="path"/>
<path d="M418.759 330.568C419.459 329.689 420.22 328.86 421.049 328.098C423.962 325.419 426.703 325.505 428.489 326.049C436.497 328.481 442.184 345.081 443.544 350.706C444.415 354.31 450.316 364.41 456.561 375.103C465.126 389.765 474.832 406.383 479.129 418.19C484.045 431.695 486.203 445.975 487.779 456.4C488.619 461.954 489.283 466.342 490.027 468.079C492.102 471.592 542.179 519.223 586.363 561.247C624.907 597.908 661.315 632.536 668.202 640.052C668.787 640.688 668.73 641.665 668.106 642.261C667.469 642.843 666.479 642.801 665.896 642.164C659.083 634.728 622.711 600.136 584.207 563.514C524.669 506.885 488.425 472.286 487.152 469.31C486.25 467.205 485.596 462.869 484.687 456.867C483.129 446.571 480.998 432.471 476.19 419.26C471.989 407.718 461.937 390.508 453.86 376.681C446.945 364.841 441.483 355.491 440.502 351.439C438.821 344.488 433.305 330.781 427.578 329.041C426.632 328.752 425.146 328.582 423.166 330.401C414.495 338.379 413.961 355.6 413.953 355.773C413.931 356.633 413.216 357.318 412.351 357.296C411.488 357.274 410.805 356.557 410.827 355.695C410.845 354.999 411.306 339.93 418.759 330.568" fill="#502801" fill-rule="nonzero" opacity="1" stroke="none" vectornator:layerName="path"/>
<path d="M541.966 512.205C557.526 527.765 476.346 615.8 454.825 594.279C454.825 594.279 467.888 611.982 491.839 635.933C515.79 659.884 606.433 572.713 580.747 547.027C555.06 521.339 541.966 512.205 541.966 512.205" fill="#65c7ce" fill-rule="nonzero" opacity="1" stroke="none" vectornator:layerName="path"/>
<path d="M574.17 587.198C574.299 584.105 574.416 581.01 574.482 577.91C576.15 577.923 577.933 577.954 579.701 577.89C581.352 574.674 582.684 571.53 583.631 568.516C583.154 569.125 582.547 569.524 581.762 569.57C578.078 569.79 574.396 570.011 570.712 570.231C568.56 570.36 566.892 571.902 566.833 574.11C566.634 581.658 566.119 589.173 565.423 596.685C556.878 597.288 548.336 597.904 539.793 598.516C537.65 598.669 535.292 600.35 535.526 602.784C536.084 608.611 536.114 614.268 535.324 619.995C528.008 619.261 517.893 617.592 512.374 620.729C508.053 623.185 507.631 630.17 507.735 635.671C502.115 635.559 496.504 635.307 490.891 634.98C491.208 635.298 491.518 635.613 491.839 635.933C497.31 641.404 506.263 641.065 516.511 636.999C516.154 632.839 515.967 628.556 520.889 628.649C524.556 628.718 528.224 628.757 531.892 628.807C535.875 626.205 539.89 623.248 543.838 620.021C544.29 615.58 544.487 611.167 544.289 606.693C549.335 606.293 554.379 605.886 559.424 605.484C564.998 599.58 570.042 593.361 574.17 587.198" fill="#95d6e0" fill-rule="nonzero" opacity="1" stroke="none" vectornator:layerName="path"/>
<path d="M468.847 611.363C472.273 611.447 475.7 611.488 479.135 611.466C481.5 611.451 483.628 609.462 483.563 607.037C483.439 602.261 481.478 595.354 487.712 595.472C493.736 595.586 499.761 595.677 505.785 595.732C507.567 595.747 509.683 594.39 509.963 592.509C510.91 586.133 511.395 579.887 511.113 573.516C519.43 572.857 527.746 572.201 536.061 571.524C538.456 571.329 540.009 569.774 540.205 567.381C540.819 559.836 541.144 552.295 541.306 544.734C547.829 544.78 556.132 545.159 558.252 538.755C559.434 535.185 559.638 530.933 559.279 526.586C556.443 524.04 553.946 521.869 551.804 520.052C551.896 521.712 552.007 523.374 552.052 525.033C552.117 527.39 552.514 536.159 548.586 536.394C544.902 536.615 541.219 536.834 537.535 537.055C537.115 537.08 536.721 537.174 536.346 537.3C535.499 538.682 534.592 540.087 533.63 541.512C533.421 548.865 532.925 556.189 532.246 563.509C526.368 563.924 520.491 564.346 514.614 564.768C510.788 568.761 506.78 572.622 502.711 576.211C502.78 579.757 502.636 583.277 502.147 586.819C498.721 586.475 494.683 585.931 490.787 585.767C485.313 589.695 479.954 592.869 475.004 594.944C474.569 597.411 474.513 600.094 474.558 602.494C470.003 602.404 465.455 602.216 460.907 601.982C463.021 604.564 465.676 607.727 468.847 611.363" fill="#95d6e0" fill-rule="nonzero" opacity="1" stroke="none" vectornator:layerName="path"/>
<path d="M585.263 559.613C585.295 558.575 585.254 557.569 585.149 556.591C585.167 557.13 585.214 557.671 585.229 558.21C585.238 558.553 585.254 559.044 585.263 559.613" fill="#95d6e0" fill-rule="nonzero" opacity="1" stroke="none" vectornator:layerName="path"/>
<path d="M483.998 627.919C487.901 628.034 491.808 628.079 495.723 628.054C498.088 628.039 500.216 626.05 500.152 623.626C500.027 618.849 498.067 611.942 504.3 612.06C510.324 612.174 516.349 612.265 522.373 612.32C524.154 612.335 526.271 610.978 526.551 609.097C527.499 602.721 527.983 596.475 527.702 590.104C536.018 589.445 544.334 588.79 552.65 588.112C555.043 587.917 556.597 586.362 556.793 583.969C557.408 576.424 557.732 568.883 557.894 561.322C564.416 561.368 572.721 561.747 574.84 555.343C576.119 551.48 576.262 546.82 575.773 542.104C573.13 539.516 570.645 537.126 568.309 534.918C568.454 537.153 568.579 539.389 568.641 541.621C568.705 543.978 569.102 552.747 565.174 552.982C561.491 553.203 557.807 553.422 554.124 553.643C551.971 553.772 550.304 555.313 550.245 557.521C550.047 565.071 549.53 572.584 548.834 580.097C540.291 580.7 531.748 581.315 523.205 581.927C521.061 582.08 518.704 583.762 518.937 586.196C519.496 592.023 519.525 597.68 518.736 603.407C511.421 602.673 501.306 601.003 495.786 604.14C491.465 606.598 491.042 613.581 491.146 619.083C485.81 618.977 480.48 618.74 475.15 618.439C477.846 621.404 480.796 624.576 483.998 627.919" fill="#95d6e0" fill-rule="nonzero" opacity="1" stroke="none" vectornator:layerName="path"/>
<path d="M580.746 547.026C580.746 547.026 587.218 571.734 554.209 604.161C521.199 636.588 496.621 637.314 496.621 637.314C496.621 637.314 506.268 645.741 527.643 631.709C549.019 617.679 567.766 598.223 576.424 583.665C585.084 569.106 585.719 560.373 584.166 553.56C582.612 546.749 580.746 547.026 580.746 547.026" fill="#ffffff" fill-rule="nonzero" opacity="1" stroke="none" vectornator:layerName="path"/>
<path d="M460.416 598.892C466.087 605.93 477.187 619.07 492.944 634.828C504.32 646.202 533.393 629.407 554.97 607.83C566.313 596.487 575.168 584.432 579.903 573.885C583.507 565.86 586.386 554.878 579.64 548.132C562.756 531.249 551.268 521.496 545.467 516.859C546.258 528.796 531.009 550.654 512.644 569.02C501.409 580.254 489.836 589.234 480.054 594.306C472.224 598.365 465.584 599.898 460.416 598.892M490.734 637.039C466.974 613.281 453.697 595.386 453.566 595.207C453.081 594.548 453.184 593.627 453.803 593.094C454.424 592.56 455.352 592.595 455.93 593.173C461.437 598.68 471.304 595.32 478.613 591.529C488.119 586.601 499.419 577.82 510.433 566.808C533.177 544.062 547.111 519.564 540.859 513.311C540.286 512.738 540.246 511.822 540.766 511.202C541.286 510.58 542.194 510.459 542.86 510.923C543.399 511.298 556.36 520.429 581.852 545.92C588.189 552.258 588.501 562.372 582.756 575.167C577.869 586.051 568.787 598.437 557.182 610.042C533.964 633.261 503.683 649.989 490.734 637.039" fill="#502801" fill-rule="nonzero" opacity="1" stroke="none" vectornator:layerName="path"/>
</g>
</g>
<path d="M400 664.075C254.156 664.075 135.925 545.845 135.925 400.001C135.925 254.155 254.156 135.925 400 135.925C545.845 135.925 664.075 254.155 664.075 400.001C664.075 545.845 545.845 664.075 400 664.075M400 108.865C239.21 108.865 108.865 239.211 108.865 400.001C108.865 560.789 239.21 691.135 400 691.135C560.79 691.135 691.135 560.789 691.135 400.001C691.135 239.211 560.79 108.865 400 108.865" fill="#007fca" fill-rule="nonzero" opacity="0" stroke="none" vectornator:layerName="path"/>
</g>
</g>
</svg>
